<svg xmlns="http://www.w3.org/2000/svg" xmlns:xlink="http://www.w3.org/1999/xlink" viewBox="0 0 1080 1080"><defs><style>.cls-1{fill:none;}.cls-2{clip-path:url(#clip-path);}.cls-17,.cls-23,.cls-3,.cls-69{fill:#f26739;}.cls-4{fill:#1d3969;}.cls-5,.cls-64{fill:#f89938;}.cls-5{opacity:0.4;}.cls-6{font-size:24px;font-family:SketchnoteSquare, Sketchnote Square;}.cls-21,.cls-24,.cls-6{fill:#231f20;}.cls-7{letter-spacing:-0.07em;}.cls-8{letter-spacing:-0.04em;}.cls-9{letter-spacing:-0.01em;}.cls-10{letter-spacing:0em;}.cls-11{letter-spacing:0.03em;}.cls-12,.cls-24{letter-spacing:-0.02em;}.cls-13{letter-spacing:-0.03em;}.cls-14{letter-spacing:-0.03em;}.cls-15{letter-spacing:0em;}.cls-16{letter-spacing:-0.01em;}.cls-17,.cls-25{letter-spacing:-0.02em;}.cls-18{letter-spacing:-0.01em;}.cls-19{letter-spacing:0em;}.cls-20{letter-spacing:-0.09em;}.cls-22,.cls-23{letter-spacing:0em;}.cls-26{font-size:29px;font-family:BarlowCondensed-SemiBoldItalic, Barlow Condensed;font-weight:600;font-style:italic;}.cls-26,.cls-56,.cls-68{fill:#fff;}.cls-27{letter-spacing:-0.07em;}.cls-28{letter-spacing:-0.02em;}.cls-29{letter-spacing:-0.02em;}.cls-30{letter-spacing:-0.06em;}.cls-31{letter-spacing:-0.01em;}.cls-32{letter-spacing:0em;}.cls-33{letter-spacing:0em;}.cls-34{letter-spacing:-0.01em;}.cls-35{letter-spacing:-0.02em;}.cls-36{letter-spacing:-0.01em;}.cls-37{letter-spacing:-0.02em;}.cls-38{letter-spacing:0em;}.cls-39{letter-spacing:-0.08em;}.cls-40{letter-spacing:0em;}.cls-41{letter-spacing:-0.06em;}.cls-42{letter-spacing:0em;}.cls-43{letter-spacing:-0.03em;}.cls-44{letter-spacing:-0.07em;}.cls-45{letter-spacing:-0.03em;}.cls-46{letter-spacing:-0.06em;}.cls-47{letter-spacing:0em;}.cls-48{letter-spacing:-0.02em;}.cls-49{letter-spacing:0em;}.cls-50{letter-spacing:0em;}.cls-51{letter-spacing:0.01em;}.cls-52{letter-spacing:-0.01em;}.cls-53{letter-spacing:-0.03em;}.cls-54{letter-spacing:0.04em;}.cls-55,.cls-70{fill:#69c9ca;}.cls-56{font-size:30px;font-family:BarlowCondensed-Bold, Barlow Condensed;font-weight:700;}.cls-57{letter-spacing:-0.04em;}.cls-58{letter-spacing:-0.01em;}.cls-59{letter-spacing:0em;}.cls-60{letter-spacing:0em;}.cls-61{letter-spacing:-0.01em;}.cls-62{letter-spacing:-0.09em;}.cls-63{letter-spacing:-0.01em;}.cls-65{fill:#0f1131;}.cls-66{clip-path:url(#clip-path-2);}.cls-67{fill:#1c3665;}.cls-67,.cls-68{fill-rule:evenodd;}.cls-69,.cls-70{opacity:0.5;}</style><clipPath id="clip-path"><rect class="cls-1" x="37.52" y="678.03" width="314.01" height="342.33"/></clipPath><clipPath id="clip-path-2"><rect class="cls-1" x="512.85" y="357.17" width="145.98" height="103.74"/></clipPath></defs><g id="Layer_1" data-name="Layer 1"><g class="cls-2"><image width="2878" height="2475" transform="translate(-18.48 678.03) scale(0.14)" xlink:href="IMG_0038.PNG"/></g><polygon class="cls-3" points="48.02 688.94 92.04 781.51 110.7 688.94 48.02 688.94"/><image width="2880" height="1620" transform="translate(644.54 6.98) scale(0.17)" xlink:href="IMG_0036.PNG"/><image width="1542" height="1624" transform="translate(19.35 -41.04) scale(0.21)" xlink:href="IMG_0037.PNG"/><rect class="cls-4" x="449.96" y="467.57" width="304.35" height="215.56" rx="30.28"/><rect class="cls-3" x="11.8" y="400.76" width="419.34" height="305.58" rx="19.78"/><rect class="cls-5" x="369.08" y="6.12" width="328.96" height="344.36" rx="35.51"/><rect class="cls-5" x="376.66" y="710.34" width="401.7" height="353.15" rx="35.51"/><rect class="cls-5" x="788.36" y="462.31" width="281.51" height="601.17" rx="35.51"/><text class="cls-6" transform="translate(388.93 747.23)">“W<tspan class="cls-7" x="33.7" y="0">e</tspan><tspan class="cls-8" x="41.93" y="0">&apos;</tspan><tspan class="cls-9" x="47.45" y="0">r</tspan><tspan x="57.29" y="0">e talking about immig</tspan><tspan class="cls-10" x="264.93" y="0">r</tspan><tspan x="275.13" y="0">ant </tspan><tspan x="0" y="28.8">detention, how immig</tspan><tspan class="cls-10" x="210.29" y="28.8">r</tspan><tspan x="220.49" y="28.8">ants get into </tspan><tspan x="0" y="57.6">depo</tspan><tspan class="cls-11" x="44.83" y="57.6">r</tspan><tspan x="55.63" y="57.6">t</tspan><tspan class="cls-12" x="66.38" y="57.6">a</tspan><tspan x="76.13" y="57.6">tion p</tspan><tspan class="cls-9" x="135.26" y="57.6">r</tspan><tspan x="145.1" y="57.6">oceedings in the fi</tspan><tspan class="cls-9" x="319.77" y="57.6">rs</tspan><tspan x="339.24" y="57.6">t </tspan><tspan x="0" y="86.4">place.</tspan><tspan class="cls-13" x="53.61" y="86.4"> </tspan><tspan x="58.77" y="86.4">We also know th</tspan><tspan class="cls-12" x="221.13" y="86.4">a</tspan><tspan x="230.88" y="86.4">t discrimin</tspan><tspan class="cls-14" x="335.23" y="86.4">a</tspan><tspan x="344.97" y="86.4">tion </tspan><tspan x="0" y="115.2">loo</tspan><tspan class="cls-15" x="29.23" y="115.2">k</tspan><tspan x="40.63" y="115.2">s di</tspan><tspan class="cls-15" x="73.87" y="115.2">ff</tspan><tspan x="89.78" y="115.2">e</tspan><tspan class="cls-16" x="99.7" y="115.2">r</tspan><tspan x="109.54" y="115.2">ently </tspan><tspan class="cls-15" x="167.18" y="115.2">f</tspan><tspan x="176.33" y="115.2">or Black mig</tspan><tspan class="cls-10" x="296.18" y="115.2">r</tspan><tspan x="306.38" y="115.2">ants in </tspan><tspan x="0" y="144">those situ</tspan><tspan class="cls-12" x="98.37" y="144">a</tspan><tspan x="108.12" y="144">tions, too.</tspan><tspan class="cls-13" x="212.09" y="144"> </tspan><tspan class="cls-3" x="217.25" y="144">We [need t</tspan><tspan class="cls-17" x="324.4" y="144">o</tspan><tspan class="cls-3" x="335.59" y="144">] </tspan><tspan class="cls-3"><tspan x="0" y="172.8">unde</tspan><tspan class="cls-9" x="45.02" y="172.8">rs</tspan><tspan x="64.49" y="172.8">tand th</tspan><tspan class="cls-12" x="137.88" y="172.8">a</tspan><tspan x="147.62" y="172.8">t Black mig</tspan><tspan class="cls-10" x="256.49" y="172.8">r</tspan><tspan x="266.69" y="172.8">ants a</tspan><tspan class="cls-9" x="326.45" y="172.8">r</tspan><tspan x="336.29" y="172.8">e </tspan><tspan x="0" y="201.6">also facing a di</tspan><tspan class="cls-15" x="141.89" y="201.6">ff</tspan><tspan x="157.8" y="201.6">e</tspan><tspan class="cls-9" x="167.71" y="201.6">r</tspan><tspan x="177.55" y="201.6">ent </tspan><tspan class="cls-16" x="216.67" y="201.6">r</tspan><tspan x="226.51" y="201.6">el</tspan><tspan class="cls-12" x="242.33" y="201.6">a</tspan><tspan x="252.07" y="201.6">tionship to </tspan><tspan x="0" y="230.4">the </tspan><tspan class="cls-9" x="38.57" y="230.4">s</tspan><tspan x="48.19" y="230.4">t</tspan><tspan class="cls-14" x="58.94" y="230.4">a</tspan><tspan x="68.69" y="230.4">te than the majority of </tspan><tspan x="0" y="259.2">individuals who a</tspan><tspan class="cls-9" x="163.61" y="259.2">r</tspan><tspan x="173.45" y="259.2">e in detention </tspan><tspan x="0" y="288">p</tspan><tspan class="cls-9" x="12.07" y="288">r</tspan><tspan x="21.91" y="288">oceedings who a</tspan><tspan class="cls-9" x="175.41" y="288">r</tspan><tspan x="185.25" y="288" xml:space="preserve">e  L</tspan><tspan class="cls-12" x="219.74" y="288">a</tspan><tspan x="229.49" y="288">tinx </tspan><tspan class="cls-15" x="275.18" y="288">f</tspan><tspan x="284.33" y="288">ol</tspan><tspan class="cls-18" x="301.89" y="288">k</tspan><tspan class="cls-19" x="313.29" y="288">s</tspan><tspan class="cls-20" x="323.16" y="288">.</tspan><tspan class="cls-21" x="327.48" y="288">”</tspan></tspan></text><text class="cls-6" transform="translate(394.96 40.86)">“<tspan class="cls-13" x="11.59" y="0"> </tspan><tspan x="16.75" y="0">The solution [to law </tspan><tspan x="0" y="28.8">en</tspan><tspan class="cls-15" x="22.37" y="28.8">f</tspan><tspan x="31.51" y="28.8">o</tspan><tspan class="cls-9" x="43.18" y="28.8">r</tspan><tspan class="cls-22" x="53.02" y="28.8">cement] </tspan><tspan class="cls-23" x="136.42" y="28.8">is going to be </tspan><tspan class="cls-3"><tspan x="0" y="57.6">the imagin</tspan><tspan class="cls-12" x="101.52" y="57.6">a</tspan><tspan x="111.26" y="57.6">tion of a sy</tspan><tspan class="cls-16" x="224.08" y="57.6">s</tspan><tspan x="233.71" y="57.6">tem </tspan><tspan x="0" y="86.4">of social cont</tspan><tspan class="cls-9" x="129.57" y="86.4">r</tspan><tspan x="139.41" y="86.4">ol because </tspan><tspan x="0" y="115.2">w</tspan><tspan class="cls-7" x="16.27" y="115.2">e</tspan><tspan class="cls-8" x="24.5" y="115.2">&apos;</tspan><tspan class="cls-9" x="30.02" y="115.2">r</tspan><tspan x="39.86" y="115.2">e always going to need </tspan><tspan x="0" y="144">one th</tspan><tspan class="cls-12" x="62.69" y="144">a</tspan><tspan x="72.43" y="144">t loo</tspan><tspan class="cls-18" x="118.42" y="144">k</tspan><tspan x="129.82" y="144">s enti</tspan><tspan class="cls-9" x="184.99" y="144">r</tspan><tspan x="194.83" y="144">ely </tspan><tspan x="0" y="172.8">di</tspan><tspan class="cls-15" x="17.38" y="172.8">ff</tspan><tspan x="33.29" y="172.8">e</tspan><tspan class="cls-9" x="43.2" y="172.8">r</tspan><tspan x="53.04" y="172.8">ent,</tspan><tspan class="cls-21" x="92.64" y="172.8" xml:space="preserve"> th</tspan><tspan class="cls-24" x="121.29" y="172.8">a</tspan><tspan class="cls-21" x="131.04" y="172.8">t is based on </tspan></tspan><tspan x="0" y="201.6">di</tspan><tspan class="cls-15" x="17.38" y="201.6">ff</tspan><tspan x="33.29" y="201.6">e</tspan><tspan class="cls-9" x="43.2" y="201.6">r</tspan><tspan x="53.04" y="201.6">ent assum</tspan><tspan class="cls-25" x="150.24" y="201.6">p</tspan><tspan x="161.83" y="201.6">tions, th</tspan><tspan class="cls-14" x="247.89" y="201.6">a</tspan><tspan x="257.64" y="201.6">t </tspan><tspan x="0" y="230.4">hopefully gets </tspan><tspan class="cls-12" x="144.48" y="230.4">a</tspan><tspan x="154.22" y="230.4">t how our </tspan><tspan x="0" y="259.2">society is o</tspan><tspan class="cls-9" x="109.63" y="259.2">r</tspan><tspan x="119.47" y="259.2">ganized </tspan><tspan class="cls-14" x="198.86" y="259.2">a</tspan><tspan x="208.6" y="259.2">t the </tspan><tspan x="0" y="288">fundamental level</tspan><tspan class="cls-20" x="168.69" y="288">.</tspan><tspan x="173.01" y="288">”</tspan></text><text class="cls-26" transform="translate(23.7 436.41)">“I DO <tspan class="cls-27" x="52.89" y="0">W</tspan><tspan x="69.68" y="0">ANT </tspan><tspan class="cls-28" x="115.16" y="0">T</tspan><tspan x="127.19" y="0">O EMPH</tspan><tspan class="cls-29" x="199.6" y="0">A</tspan><tspan x="211.78" y="0">SIZE TH</tspan><tspan class="cls-30" x="285.76" y="0">A</tspan><tspan x="296.9" y="0">T WE </tspan><tspan class="cls-31" x="351.82" y="0">C</tspan><tspan x="364.46" y="0">AN </tspan><tspan x="0" y="34.8">DO BOTH OF T</tspan><tspan class="cls-32" x="133.11" y="34.8">H</tspan><tspan x="146.42" y="34.8">E</tspan><tspan class="cls-33" x="158.66" y="34.8">S</tspan><tspan x="170.75" y="34.8">E THING</tspan><tspan class="cls-32" x="248.35" y="34.8">S</tspan><tspan x="260.44" y="34.8">. WE </tspan><tspan class="cls-31" x="308.58" y="34.8">C</tspan><tspan x="321.22" y="34.8">AN </tspan><tspan class="cls-32" x="0" y="69.6">D</tspan><tspan x="13.17" y="69.6">EF</tspan><tspan class="cls-34" x="37.06" y="69.6">U</tspan><tspan x="50.26" y="69.6">N</tspan><tspan class="cls-34" x="64.52" y="69.6">D</tspan><tspan x="77.54" y="69.6">, DIVE</tspan><tspan class="cls-34" x="133.86" y="69.6">S</tspan><tspan x="145.81" y="69.6">T—WH</tspan><tspan class="cls-30" x="207.35" y="69.6">A</tspan><tspan x="218.48" y="69.6">TEVER TERMS </tspan><tspan class="cls-35" x="0" y="104.4">Y</tspan><tspan x="12.33" y="104.4">OU </tspan><tspan class="cls-36" x="44.54" y="104.4">W</tspan><tspan x="62.84" y="104.4">OULD LIKE </tspan><tspan class="cls-37" x="169.33" y="104.4">T</tspan><tspan x="181.36" y="104.4">O U</tspan><tspan class="cls-33" x="213.58" y="104.4">S</tspan><tspan x="225.67" y="104.4">E—WHILE A</tspan><tspan class="cls-38" x="335.44" y="104.4">L</tspan><tspan x="347.04" y="104.4">SO </tspan><tspan x="0" y="139.2">PROPOSING T</tspan><tspan class="cls-32" x="129.11" y="139.2">H</tspan><tspan x="142.42" y="139.2">E A</tspan><tspan class="cls-39" x="173.13" y="139.2">L</tspan><tspan x="182.64" y="139.2">TERN</tspan><tspan class="cls-30" x="234.87" y="139.2">A</tspan><tspan x="246" y="139.2">TIVE. BUT I </tspan><tspan x="0" y="174">A</tspan><tspan class="cls-40" x="12.85" y="174">L</tspan><tspan x="24.45" y="174">SO THINK TH</tspan><tspan class="cls-30" x="147.37" y="174">A</tspan><tspan x="158.51" y="174">T ALL OF TH</tspan><tspan class="cls-41" x="275.29" y="174">A</tspan><tspan x="286.43" y="174">T </tspan><tspan x="0" y="208.8">REQUIRES US </tspan><tspan class="cls-37" x="132.15" y="208.8">T</tspan><tspan x="144.18" y="208.8">O </tspan><tspan class="cls-32" x="162.95" y="208.8">B</tspan><tspan x="175.82" y="208.8">E </tspan><tspan class="cls-32" x="193.69" y="208.8">D</tspan><tspan class="cls-42" x="206.85" y="208.8">EEP</tspan><tspan class="cls-43" x="244.17" y="208.8">L</tspan><tspan x="254.96" y="208.8">Y IN </tspan><tspan x="0" y="243.6">COMM</tspan><tspan class="cls-34" x="56.29" y="243.6">U</tspan><tspan x="69.48" y="243.6">NIT</tspan><tspan class="cls-44" x="102.8" y="243.6">Y</tspan><tspan x="113.68" y="243.6">. ”</tspan></text><text class="cls-6" transform="translate(814.67 494.37)">“ I<tspan class="cls-16" x="24.36" y="0">&apos;</tspan><tspan x="30.6" y="0">ve been quite </tspan><tspan x="0" y="28.8">hea</tspan><tspan class="cls-11" x="32.16" y="28.8">r</tspan><tspan x="42.96" y="28.8">tened, and i</tspan><tspan class="cls-45" x="155.83" y="28.8">t</tspan><tspan class="cls-46" x="165.86" y="28.8">&apos;</tspan><tspan class="cls-47" x="170.9" y="28.8">s a </tspan><tspan x="0" y="57.6">sou</tspan><tspan class="cls-16" x="33" y="57.6">r</tspan><tspan x="42.84" y="57.6">ce of o</tspan><tspan class="cls-48" x="106.25" y="57.6">p</tspan><tspan x="117.84" y="57.6">timism </tspan><tspan class="cls-18" x="189.91" y="57.6">f</tspan><tspan x="199.06" y="57.6">or </tspan><tspan x="0" y="86.4">me pe</tspan><tspan class="cls-16" x="54.43" y="86.4">r</tspan><tspan x="64.27" y="86.4">sonally, by the </tspan><tspan x="0" y="115.2">p</tspan><tspan class="cls-16" x="12.07" y="115.2">r</tspan><tspan x="21.91" y="115.2">oli</tspan><tspan class="cls-49" x="45.67" y="115.2">f</tspan><tspan x="54.82" y="115.2">e</tspan><tspan class="cls-50" x="64.73" y="115.2">r</tspan><tspan class="cls-12" x="74.93" y="115.2">a</tspan><tspan x="84.67" y="115.2">tion of mutual </tspan><tspan x="0" y="144">aid, b</tspan><tspan class="cls-48" x="50.62" y="144">o</tspan><tspan x="61.8" y="144">th as a conce</tspan><tspan class="cls-48" x="184.85" y="144">p</tspan><tspan x="196.44" y="144">t </tspan><tspan x="0" y="172.8">and a p</tspan><tspan class="cls-51" x="68.4" y="172.8">r</tspan><tspan x="78.6" y="172.8">actice. I think in </tspan><tspan x="0" y="201.6">our cur</tspan><tspan class="cls-16" x="69.67" y="201.6">r</tspan><tspan x="79.51" y="201.6">ent moment, we </tspan><tspan x="0" y="230.4">have viewed it th</tspan><tspan class="cls-16" x="164.11" y="230.4">r</tspan><tspan x="173.95" y="230.4">ough </tspan><tspan x="0" y="259.2">the lens of disa</tspan><tspan class="cls-16" x="147.21" y="259.2">s</tspan><tspan x="156.84" y="259.2">ter </tspan><tspan class="cls-16" x="0" y="288">r</tspan><tspan x="9.84" y="288">elief mo</tspan><tspan class="cls-52" x="85.22" y="288">r</tspan><tspan x="95.06" y="288">e than </tspan><tspan x="0" y="316.8">anything else, </tspan><tspan class="cls-3" x="142.03" y="316.8">but a </tspan><tspan class="cls-3"><tspan class="cls-16" x="0" y="345.6">r</tspan><tspan x="9.84" y="345.6">ecalib</tspan><tspan class="cls-51" x="61.51" y="345.6">r</tspan><tspan class="cls-12" x="71.71" y="345.6">a</tspan><tspan x="81.46" y="345.6">tion of th</tspan><tspan class="cls-53" x="178.1" y="345.6">a</tspan><tspan x="187.84" y="345.6">t </tspan><tspan x="0" y="374.4">p</tspan><tspan class="cls-16" x="12.07" y="374.4">r</tspan><tspan x="21.91" y="374.4">emise and th</tspan><tspan class="cls-12" x="142.97" y="374.4">a</tspan><tspan x="152.71" y="374.4">t </tspan><tspan x="0" y="403.2">conce</tspan><tspan class="cls-48" x="51.84" y="403.2">p</tspan><tspan x="63.43" y="403.2">t of </tspan><tspan class="cls-16" x="0" y="432">s</tspan><tspan x="9.62" y="432">t</tspan><tspan class="cls-52" x="20.38" y="432">r</tspan><tspan x="30.22" y="432">engthening </tspan><tspan x="0" y="460.8">community by taking </tspan><tspan x="0" y="489.6">ca</tspan><tspan class="cls-16" x="19.25" y="489.6">r</tspan><tspan x="29.09" y="489.6">e of community is </tspan><tspan x="0" y="518.4">absolutely crucial to </tspan><tspan x="0" y="547.2">moving </tspan><tspan class="cls-18" x="74.52" y="547.2">f</tspan><tspan x="83.66" y="547.2">o</tspan><tspan class="cls-54" x="95.33" y="547.2">r</tspan><tspan x="106.37" y="547.2">wa</tspan><tspan class="cls-52" x="132.98" y="547.2">r</tspan><tspan x="142.82" y="547.2">d</tspan><tspan class="cls-20" x="154.01" y="547.2">.</tspan><tspan class="cls-21" x="158.33" y="547.2">”</tspan></tspan></text><rect class="cls-55" x="465.3" y="482.04" width="304.35" height="215.56" rx="30.28"/><text class="cls-56" transform="translate(478.32 526.01)"><tspan class="cls-57">F</tspan><tspan x="11.4" y="0">AR-RIGHT ALIGNMENT OF </tspan><tspan x="-7.59" y="36">CO</tspan><tspan class="cls-58" x="20.52" y="36">U</tspan><tspan x="34.71" y="36">NTY S</tspan><tspan class="cls-59" x="97.71" y="36">H</tspan><tspan x="112.02" y="36">ERIFFS AND T</tspan><tspan class="cls-59" x="254.97" y="36">H</tspan><tspan x="269.28" y="36">E </tspan><tspan x="23.42" y="72">VIOLENT POLICING OF </tspan><tspan x="2.52" y="108">IMMIG</tspan><tspan class="cls-60" x="63.21" y="108">R</tspan><tspan x="77.49" y="108">ANT COMM</tspan><tspan class="cls-61" x="188.4" y="108">U</tspan><tspan x="202.59" y="108">NITIES</tspan><tspan x="78.31" y="144">10/0</tspan><tspan class="cls-62" x="126.46" y="144">7</tspan><tspan x="136.09" y="144">/20</tspan><tspan class="cls-63" x="175.27" y="144">2</tspan><tspan x="187.99" y="144">1</tspan></text><rect class="cls-3" x="721.76" y="261.22" width="342.33" height="124.52" rx="25.17"/><rect class="cls-64" x="730.54" y="276.25" width="342.33" height="124.52" rx="25.17"/><path class="cls-4" d="M833.24,308.59a.4.4,0,0,1-.29.12h-7.52c-.11,0-.17.06-.17.18v6.57a.15.15,0,0,0,.17.17h4.46a.41.41,0,0,1,.29.13.4.4,0,0,1,.12.29v2.68a.42.42,0,0,1-.12.3.4.4,0,0,1-.29.12h-4.46a.15.15,0,0,0-.17.17v6.61a.15.15,0,0,0,.17.17H833a.4.4,0,0,1,.29.12.42.42,0,0,1,.12.3v2.64a.41.41,0,0,1-.12.3.4.4,0,0,1-.29.12H821.64a.4.4,0,0,1-.29-.12.41.41,0,0,1-.12-.3V305.65a.41.41,0,0,1,.41-.41H833a.41.41,0,0,1,.41.41v2.65A.4.4,0,0,1,833.24,308.59Z"/><path class="cls-4" d="M849.14,305.36a.4.4,0,0,1,.12.29v2.65a.4.4,0,0,1-.12.29.42.42,0,0,1-.3.12h-4.42c-.11,0-.17.06-.17.18v20.27a.41.41,0,0,1-.42.42h-3.2a.4.4,0,0,1-.29-.12.41.41,0,0,1-.12-.3V308.89a.16.16,0,0,0-.18-.18h-4.17a.41.41,0,0,1-.3-.12.4.4,0,0,1-.12-.29v-2.65a.4.4,0,0,1,.12-.29.41.41,0,0,1,.3-.12h13A.42.42,0,0,1,849.14,305.36Z"/><path class="cls-4" d="M861,305.36a.38.38,0,0,1,.29-.12h3.2a.41.41,0,0,1,.3.12.4.4,0,0,1,.12.29v23.51a.41.41,0,0,1-.42.42h-3.2a.38.38,0,0,1-.29-.12.38.38,0,0,1-.13-.3v-9.84a.15.15,0,0,0-.17-.17h-4.42a.15.15,0,0,0-.17.17v9.84a.41.41,0,0,1-.42.42h-3.2a.4.4,0,0,1-.29-.12.41.41,0,0,1-.12-.3V305.65a.41.41,0,0,1,.41-.41h3.2a.41.41,0,0,1,.3.12.4.4,0,0,1,.12.29v9.81a.15.15,0,0,0,.17.17h4.42c.12,0,.17-.05.17-.17v-9.81A.37.37,0,0,1,861,305.36Z"/><path class="cls-4" d="M878.09,329.2l-.66-3.65q0-.18-.21-.18h-5.08q-.21,0-.21.18l-.66,3.65c0,.25-.17.38-.45.38h-3.16q-.49,0-.39-.45l5.15-23.51a.41.41,0,0,1,.45-.38h3.69a.41.41,0,0,1,.45.38l5.15,23.51v.14c0,.21-.13.31-.38.31h-3.24C878.26,329.58,878.11,329.45,878.09,329.2Zm-5.36-7h3.86q.21,0,.18-.18l-2-11c0-.07-.06-.1-.1-.1s-.09,0-.11.1l-2,11C872.54,322.15,872.59,322.21,872.73,322.21Z"/><path class="cls-4" d="M894.52,305.36a.41.41,0,0,1,.3-.12H898a.41.41,0,0,1,.3.12.4.4,0,0,1,.12.29v23.51a.41.41,0,0,1-.42.42h-3.65a.44.44,0,0,1-.45-.35l-5.18-14.74c0-.07-.07-.1-.13-.09s-.08.05-.08.12l0,14.64a.41.41,0,0,1-.42.42h-3.16a.42.42,0,0,1-.3-.12.41.41,0,0,1-.12-.3V305.65a.4.4,0,0,1,.12-.29.42.42,0,0,1,.3-.12h3.58a.43.43,0,0,1,.45.34l5.22,14.65a.1.1,0,0,0,.12.08.1.1,0,0,0,.09-.12V305.65A.4.4,0,0,1,894.52,305.36Z"/><path class="cls-4" d="M921.09,308.59a.41.41,0,0,1-.3.12h-7.47a.16.16,0,0,0-.18.18v6.57c0,.12.06.17.18.17h4.41a.42.42,0,0,1,.3.13.4.4,0,0,1,.12.29v2.68a.42.42,0,0,1-.12.3.41.41,0,0,1-.3.12h-4.41c-.12,0-.18.06-.18.17v9.84a.41.41,0,0,1-.12.3.4.4,0,0,1-.29.12h-3.2a.41.41,0,0,1-.42-.42V305.65a.4.4,0,0,1,.12-.29.41.41,0,0,1,.3-.12h11.26a.41.41,0,0,1,.3.12.4.4,0,0,1,.12.29v2.65A.4.4,0,0,1,921.09,308.59Z"/><path class="cls-4" d="M931.71,329.2l-.66-3.65c0-.12-.07-.18-.2-.18h-5.08q-.21,0-.21.18l-.66,3.65a.39.39,0,0,1-.45.38h-3.17c-.32,0-.45-.15-.38-.45l5.15-23.51a.4.4,0,0,1,.45-.38h3.68a.42.42,0,0,1,.46.38l5.14,23.51v.14c0,.21-.12.31-.38.31h-3.23A.4.4,0,0,1,931.71,329.2Zm-5.35-7h3.86c.14,0,.2-.06.17-.18l-2-11c0-.07-.06-.1-.11-.1s-.08,0-.1.1l-2,11C926.16,322.15,926.22,322.21,926.36,322.21Z"/><path class="cls-4" d="M939.8,327.93a7.23,7.23,0,0,1-1.79-5.1V305.65a.4.4,0,0,1,.12-.29.41.41,0,0,1,.3-.12h3.2a.41.41,0,0,1,.41.41v17.6a3.53,3.53,0,0,0,.7,2.26,2.39,2.39,0,0,0,3.69,0,3.52,3.52,0,0,0,.69-2.26v-17.6a.4.4,0,0,1,.12-.29.41.41,0,0,1,.3-.12h3.2a.4.4,0,0,1,.29.12.37.37,0,0,1,.13.29v17.18a7.19,7.19,0,0,1-1.81,5.1,6.87,6.87,0,0,1-9.55,0Z"/><path class="cls-4" d="M964,329.23l-3-10c0-.09-.11-.14-.18-.14H959c-.12,0-.17.06-.17.18v9.87a.41.41,0,0,1-.12.3.44.44,0,0,1-.3.12h-3.2a.42.42,0,0,1-.3-.12.41.41,0,0,1-.12-.3V305.65a.4.4,0,0,1,.12-.29.42.42,0,0,1,.3-.12h6.54a6,6,0,0,1,3.25.88,5.91,5.91,0,0,1,2.19,2.51,8.39,8.39,0,0,1,.78,3.7,7.74,7.74,0,0,1-.83,3.72,5.61,5.61,0,0,1-2.33,2.37c-.09,0-.13.09-.11.21l3.41,10.46a.34.34,0,0,1,0,.18c0,.21-.13.31-.38.31h-3.34A.44.44,0,0,1,964,329.23Zm-5.14-20.34v6.92a.15.15,0,0,0,.17.17h2.12a2.48,2.48,0,0,0,2-1,4.11,4.11,0,0,0,.78-2.64,4.22,4.22,0,0,0-.78-2.67,2.47,2.47,0,0,0-2-1H959C958.86,308.71,958.81,308.77,958.81,308.89Z"/><path class="cls-4" d="M982.82,308.59a.4.4,0,0,1-.29.12H975c-.11,0-.17.06-.17.18v6.57a.15.15,0,0,0,.17.17h4.46a.41.41,0,0,1,.29.13.4.4,0,0,1,.12.29v2.68a.42.42,0,0,1-.12.3.4.4,0,0,1-.29.12H975a.15.15,0,0,0-.17.17v6.61a.15.15,0,0,0,.17.17h7.52a.4.4,0,0,1,.29.12.42.42,0,0,1,.12.3v2.64a.41.41,0,0,1-.12.3.4.4,0,0,1-.29.12H971.22a.4.4,0,0,1-.29-.12.41.41,0,0,1-.12-.3V305.65a.41.41,0,0,1,.41-.41h11.31a.41.41,0,0,1,.41.41v2.65A.4.4,0,0,1,982.82,308.59Zm-7.88-5.72a.31.31,0,0,1,0-.35l2-3.58a.54.54,0,0,1,.52-.28h2.51c.18,0,.3,0,.34.16a.34.34,0,0,1-.07.36l-2.57,3.59a.56.56,0,0,1-.49.24h-2A.42.42,0,0,1,974.94,302.87Z"/><path class="cls-65" d="M889.72,347.84a6,6,0,0,1,2.19,2.54,8.4,8.4,0,0,1,.79,3.72,7.38,7.38,0,0,1-1.66,5,5.45,5.45,0,0,1-4.36,1.91h-3c-.11,0-.17.06-.17.18v9.67a.4.4,0,0,1-.12.29.41.41,0,0,1-.3.12h-3.2a.4.4,0,0,1-.29-.12.41.41,0,0,1-.13-.29V347.35a.41.41,0,0,1,.13-.29.4.4,0,0,1,.29-.12h6.54A5.9,5.9,0,0,1,889.72,347.84Zm-1.84,9.06a4.25,4.25,0,0,0,.78-2.7,4.44,4.44,0,0,0-.78-2.76,2.46,2.46,0,0,0-2.07-1h-2.09c-.11,0-.17.06-.17.18v7.13a.15.15,0,0,0,.17.17h2.09A2.5,2.5,0,0,0,887.88,356.9Z"/><path class="cls-65" d="M904.62,371l-3-10c0-.1-.11-.14-.17-.14h-1.85a.15.15,0,0,0-.17.17v9.88a.4.4,0,0,1-.12.29.42.42,0,0,1-.3.12h-3.2a.38.38,0,0,1-.29-.12.37.37,0,0,1-.13-.29V347.39a.38.38,0,0,1,.13-.3.38.38,0,0,1,.29-.12h6.54a6,6,0,0,1,3.25.89,5.88,5.88,0,0,1,2.19,2.5,8.42,8.42,0,0,1,.78,3.7,7.81,7.81,0,0,1-.83,3.73,5.59,5.59,0,0,1-2.33,2.36c-.09,0-.13.09-.1.21l3.4,10.47a.29.29,0,0,1,0,.17c0,.21-.13.31-.38.31h-3.34A.43.43,0,0,1,904.62,371Zm-5.14-20.35v6.92c0,.12.06.18.17.18h2.12a2.49,2.49,0,0,0,2-1,4.11,4.11,0,0,0,.78-2.64,4.19,4.19,0,0,0-.78-2.66,2.47,2.47,0,0,0-2-1h-2.12A.15.15,0,0,0,899.48,350.62Z"/><path class="cls-65" d="M921.18,370.93l-.66-3.65c0-.12-.07-.17-.21-.17h-5.08c-.14,0-.21.05-.21.17l-.66,3.65c0,.26-.17.38-.45.38h-3.16q-.5,0-.39-.45l5.15-23.51A.42.42,0,0,1,916,347h3.69a.42.42,0,0,1,.45.38l5.15,23.51V371c0,.21-.13.31-.38.31h-3.24C921.35,371.31,921.2,371.19,921.18,370.93Zm-5.36-7h3.86c.14,0,.2-.06.18-.17l-2-11c0-.07-.06-.11-.1-.11s-.08,0-.11.11l-2,11C915.63,363.88,915.68,363.94,915.82,363.94Z"/><rect class="cls-3" x="9.2" y="242.44" width="342.33" height="133.67" rx="25.17"/><rect class="cls-64" x="17.97" y="258.58" width="342.33" height="133.67" rx="25.17"/><rect class="cls-3" x="17.97" y="923.94" width="342.33" height="124.52" rx="25.17"/><rect class="cls-64" x="26.74" y="938.97" width="342.33" height="124.52" rx="25.17"/><path class="cls-4" d="M111.3,971.32a.42.42,0,0,1-.3.12h-7.48a.15.15,0,0,0-.17.17v6.58a.15.15,0,0,0,.17.17h4.42a.42.42,0,0,1,.3.12.41.41,0,0,1,.12.3v2.68a.4.4,0,0,1-.12.29.42.42,0,0,1-.3.12h-4.42c-.11,0-.17.06-.17.18v9.84a.4.4,0,0,1-.12.29.38.38,0,0,1-.3.13h-3.2a.45.45,0,0,1-.42-.42V968.38a.39.39,0,0,1,.13-.3.4.4,0,0,1,.29-.12H111a.41.41,0,0,1,.42.42V971A.41.41,0,0,1,111.3,971.32Z"/><path class="cls-4" d="M125.76,971.32a.4.4,0,0,1-.29.12H118c-.12,0-.18.06-.18.17v6.58c0,.11.06.17.18.17h4.45a.4.4,0,0,1,.29.12.41.41,0,0,1,.12.3v2.68a.41.41,0,0,1-.41.41H118a.16.16,0,0,0-.18.18v6.6a.16.16,0,0,0,.18.18h7.51a.4.4,0,0,1,.29.12.41.41,0,0,1,.12.3v2.64a.4.4,0,0,1-.12.29.37.37,0,0,1-.29.13H114.16a.37.37,0,0,1-.29-.13.4.4,0,0,1-.12-.29V968.38a.42.42,0,0,1,.12-.3.4.4,0,0,1,.29-.12h11.31a.4.4,0,0,1,.29.12.42.42,0,0,1,.12.3V971A.41.41,0,0,1,125.76,971.32Z"/><path class="cls-4" d="M129,992.18a.4.4,0,0,1-.12-.29V968.38a.42.42,0,0,1,.12-.3.4.4,0,0,1,.29-.12h3.2a.41.41,0,0,1,.3.12.42.42,0,0,1,.12.3v20.27c0,.12.06.18.17.18h7.52a.4.4,0,0,1,.29.12.41.41,0,0,1,.12.3v2.64a.4.4,0,0,1-.12.29.37.37,0,0,1-.29.13H129.29A.37.37,0,0,1,129,992.18Z"/><path class="cls-4" d="M143.43,992.18a.4.4,0,0,1-.12-.29V968.38a.42.42,0,0,1,.12-.3.41.41,0,0,1,.3-.12h3.2a.4.4,0,0,1,.29.12.42.42,0,0,1,.12.3v23.51a.4.4,0,0,1-.12.29.37.37,0,0,1-.29.13h-3.2A.38.38,0,0,1,143.43,992.18Z"/><path class="cls-4" d="M152.47,990.79a6.41,6.41,0,0,1-1.79-4.74V974.19a6.36,6.36,0,0,1,1.79-4.75,6.51,6.51,0,0,1,4.75-1.76,6.62,6.62,0,0,1,4.8,1.76,6.33,6.33,0,0,1,1.81,4.75v.41a.47.47,0,0,1-.12.32.41.41,0,0,1-.3.14l-3.23.14a.37.37,0,0,1-.42-.42v-.87a2.8,2.8,0,0,0-.7-2,2.55,2.55,0,0,0-3.65,0,2.84,2.84,0,0,0-.69,2v12.45a2.84,2.84,0,0,0,.69,2,2.55,2.55,0,0,0,3.65,0,2.8,2.8,0,0,0,.7-2v-.87a.42.42,0,0,1,.12-.3.41.41,0,0,1,.3-.12l3.23.14a.41.41,0,0,1,.42.42v.42a6.38,6.38,0,0,1-1.81,4.74,6.51,6.51,0,0,1-4.8,1.79A6.41,6.41,0,0,1,152.47,990.79Z"/><path class="cls-4" d="M167.11,992.18a.4.4,0,0,1-.12-.29V968.38a.41.41,0,0,1,.42-.42h3.2a.44.44,0,0,1,.3.12.42.42,0,0,1,.12.3v23.51a.4.4,0,0,1-.12.29.41.41,0,0,1-.3.13h-3.2A.39.39,0,0,1,167.11,992.18Z"/><path class="cls-4" d="M184.21,991.92l-.66-3.65c0-.11-.07-.17-.21-.17h-5.08c-.14,0-.21.06-.21.17l-.66,3.65a.39.39,0,0,1-.45.39h-3.17c-.32,0-.45-.15-.38-.46l5.15-23.51A.42.42,0,0,1,179,968h3.69a.42.42,0,0,1,.45.38l5.15,23.51V992c0,.21-.13.32-.39.32h-3.23A.39.39,0,0,1,184.21,991.92Zm-5.36-7h3.86c.14,0,.2,0,.18-.17l-2-11c0-.07-.06-.1-.11-.1s-.08,0-.1.1l-2,11C178.65,984.88,178.71,984.93,178.85,984.93Z"/><path class="cls-4" d="M207,991.92l-.66-3.65c0-.11-.07-.17-.21-.17h-5.08c-.14,0-.2.06-.2.17l-.67,3.65a.39.39,0,0,1-.45.39h-3.16c-.33,0-.46-.15-.38-.46l5.14-23.51a.42.42,0,0,1,.45-.38h3.69a.41.41,0,0,1,.45.38l5.15,23.51V992c0,.21-.13.32-.38.32h-3.24A.39.39,0,0,1,207,991.92Zm-5.35-7h3.86c.13,0,.19,0,.17-.17l-2-11c0-.07-.06-.1-.1-.1s-.08,0-.11.1l-2,11C201.47,984.88,201.53,984.93,201.67,984.93Z"/><path class="cls-4" d="M222.64,992l-3-10c-.05-.1-.1-.14-.17-.14h-1.85a.15.15,0,0,0-.17.17v9.88a.4.4,0,0,1-.12.29.38.38,0,0,1-.3.13h-3.2a.36.36,0,0,1-.29-.13.37.37,0,0,1-.13-.29V968.38a.39.39,0,0,1,.13-.3.38.38,0,0,1,.29-.12h6.54a6,6,0,0,1,3.25.89,5.88,5.88,0,0,1,2.19,2.5,8.46,8.46,0,0,1,.78,3.71,7.79,7.79,0,0,1-.83,3.72,5.59,5.59,0,0,1-2.33,2.36.15.15,0,0,0-.1.21l3.4,10.47a.31.31,0,0,1,0,.17c0,.21-.13.32-.38.32h-3.34A.44.44,0,0,1,222.64,992Zm-5.15-20.35v6.92c0,.12.06.18.17.18h2.12a2.49,2.49,0,0,0,2-1,4.11,4.11,0,0,0,.78-2.64,4.19,4.19,0,0,0-.78-2.66,2.47,2.47,0,0,0-2-1h-2.12A.15.15,0,0,0,217.49,971.61Z"/><path class="cls-4" d="M238.67,992l-3-10c0-.1-.1-.14-.17-.14H233.7c-.12,0-.18.06-.18.17v9.88a.4.4,0,0,1-.12.29.38.38,0,0,1-.3.13h-3.2a.37.37,0,0,1-.29-.13.4.4,0,0,1-.12-.29V968.38a.42.42,0,0,1,.12-.3.4.4,0,0,1,.29-.12h6.54a5.81,5.81,0,0,1,5.45,3.39,8.46,8.46,0,0,1,.78,3.71,7.8,7.8,0,0,1-.84,3.72,5.53,5.53,0,0,1-2.33,2.36c-.09,0-.12.1-.1.21l3.41,10.47a.43.43,0,0,1,0,.17c0,.21-.13.32-.38.32h-3.34A.44.44,0,0,1,238.67,992Zm-5.15-20.35v6.92a.16.16,0,0,0,.18.18h2.12a2.49,2.49,0,0,0,2-1,4.11,4.11,0,0,0,.78-2.64,4.19,4.19,0,0,0-.78-2.66,2.47,2.47,0,0,0-2-1H233.7C233.58,971.44,233.52,971.5,233.52,971.61Z"/><path class="cls-4" d="M245.64,992.18a.4.4,0,0,1-.12-.29V968.38a.42.42,0,0,1,.12-.3.41.41,0,0,1,.3-.12h3.2a.4.4,0,0,1,.29.12.42.42,0,0,1,.12.3v23.51a.4.4,0,0,1-.12.29.37.37,0,0,1-.29.13h-3.2A.38.38,0,0,1,245.64,992.18Z"/><path class="cls-4" d="M262.74,991.92l-.66-3.65c0-.11-.08-.17-.21-.17h-5.08c-.14,0-.21.06-.21.17l-.66,3.65a.39.39,0,0,1-.45.39H252.3c-.32,0-.45-.15-.38-.46l5.15-23.51a.41.41,0,0,1,.45-.38h3.69a.42.42,0,0,1,.45.38l5.14,23.51V992c0,.21-.12.32-.38.32h-3.23A.39.39,0,0,1,262.74,991.92Zm-5.36-7h3.86c.14,0,.2,0,.17-.17l-2-11c0-.07-.06-.1-.11-.1s-.08,0-.1.1l-2,11C257.18,984.88,257.24,984.93,257.38,984.93Z"/><path class="cls-4" d="M270,990.86a6,6,0,0,1-1.79-4.57V974a6,6,0,0,1,1.79-4.57,6.54,6.54,0,0,1,4.74-1.73,6.69,6.69,0,0,1,4.79,1.73,6,6,0,0,1,1.82,4.6v1.36a.42.42,0,0,1-.12.3.41.41,0,0,1-.3.12h-3.19a.41.41,0,0,1-.3-.12.42.42,0,0,1-.12-.3v-1.43a2.81,2.81,0,0,0-.72-2,2.41,2.41,0,0,0-1.86-.77,2.37,2.37,0,0,0-1.84.77,2.89,2.89,0,0,0-.69,2v12.38a2.9,2.9,0,0,0,.69,2,2.37,2.37,0,0,0,1.84.77,2.41,2.41,0,0,0,1.86-.77,2.82,2.82,0,0,0,.72-2V983a.16.16,0,0,0-.18-.18H275a.4.4,0,0,1-.29-.12.41.41,0,0,1-.12-.3v-2.53a.41.41,0,0,1,.12-.3.4.4,0,0,1,.29-.12h5.91a.41.41,0,0,1,.42.42v6.43a6,6,0,0,1-1.82,4.57,6.68,6.68,0,0,1-4.79,1.72A6.53,6.53,0,0,1,270,990.86Z"/><path class="cls-4" d="M293.83,991.92l-.66-3.65c0-.11-.07-.17-.21-.17h-5.08c-.14,0-.21.06-.21.17l-.66,3.65a.39.39,0,0,1-.45.39h-3.17c-.32,0-.45-.15-.38-.46l5.15-23.51a.42.42,0,0,1,.45-.38h3.69a.42.42,0,0,1,.45.38l5.15,23.51V992c0,.21-.13.32-.39.32h-3.23A.39.39,0,0,1,293.83,991.92Zm-5.36-7h3.86c.14,0,.2,0,.18-.17l-2-11c0-.07-.06-.1-.11-.1s-.08,0-.1.1l-2,11C288.27,984.88,288.33,984.93,288.47,984.93Z"/><path class="cls-65" d="M161.39,1009.82a.41.41,0,0,1,.3-.12h3.16a.41.41,0,0,1,.3.12.4.4,0,0,1,.12.29v23.51a.41.41,0,0,1-.42.42H161.2a.44.44,0,0,1-.45-.35L155.57,1019q0-.11-.12-.09a.1.1,0,0,0-.09.12l0,14.64a.41.41,0,0,1-.12.3.4.4,0,0,1-.29.12h-3.17a.4.4,0,0,1-.29-.12.38.38,0,0,1-.13-.3v-23.51a.37.37,0,0,1,.13-.29.4.4,0,0,1,.29-.12h3.58a.43.43,0,0,1,.46.34l5.21,14.64q0,.1.12.09a.1.1,0,0,0,.09-.12v-14.54A.4.4,0,0,1,161.39,1009.82Z"/><path class="cls-65" d="M170.4,1032.53a6.45,6.45,0,0,1-1.79-4.75v-11.86a6.37,6.37,0,0,1,1.79-4.75,6.49,6.49,0,0,1,4.75-1.75,6.61,6.61,0,0,1,4.8,1.75,6.34,6.34,0,0,1,1.8,4.75v.42a.47.47,0,0,1-.12.31.38.38,0,0,1-.29.14l-3.24.14a.37.37,0,0,1-.41-.42v-.87a2.85,2.85,0,0,0-.7-2,2.36,2.36,0,0,0-1.84-.76,2.33,2.33,0,0,0-1.81.76,2.85,2.85,0,0,0-.7,2v12.45a2.86,2.86,0,0,0,.7,2,2.33,2.33,0,0,0,1.81.76,2.36,2.36,0,0,0,1.84-.76,2.86,2.86,0,0,0,.7-2v-.87a.41.41,0,0,1,.41-.41l3.24.14a.41.41,0,0,1,.41.41v.42a6.42,6.42,0,0,1-1.8,4.75,6.55,6.55,0,0,1-4.8,1.79A6.43,6.43,0,0,1,170.4,1032.53Z"/><path class="cls-65" d="M186,1032.58a6.12,6.12,0,0,1-1.78-4.56v-.9a.39.39,0,0,1,.13-.3.4.4,0,0,1,.29-.12h3.17a.4.4,0,0,1,.29.12.42.42,0,0,1,.12.3v.7a3.39,3.39,0,0,0,.68,2.19,2.18,2.18,0,0,0,1.76.83,2.26,2.26,0,0,0,1.77-.78,3,3,0,0,0,.7-2.07,3.15,3.15,0,0,0-.38-1.57,5.15,5.15,0,0,0-1.08-1.25c-.47-.39-1.21-1-2.23-1.7a32.13,32.13,0,0,1-2.8-2.23,8.21,8.21,0,0,1-1.77-2.35,6.72,6.72,0,0,1-.71-3.18,6.14,6.14,0,0,1,1.73-4.59,6.3,6.3,0,0,1,4.59-1.7,6.23,6.23,0,0,1,4.66,1.79,6.43,6.43,0,0,1,1.78,4.75v.83a.41.41,0,0,1-.42.42h-3.13a.38.38,0,0,1-.29-.12.39.39,0,0,1-.13-.3v-.9a3.32,3.32,0,0,0-.67-2.18,2.24,2.24,0,0,0-1.8-.81,2.16,2.16,0,0,0-1.7.74,3,3,0,0,0-.66,2.07,3.25,3.25,0,0,0,.71,2.12,16.92,16.92,0,0,0,2.8,2.4c1.42,1,2.48,1.9,3.2,2.56a7.39,7.39,0,0,1,1.67,2.17,6.18,6.18,0,0,1,.59,2.82,6.48,6.48,0,0,1-1.77,4.75,6.29,6.29,0,0,1-4.66,1.79A6.36,6.36,0,0,1,186,1032.58Z"/><path class="cls-65" d="M210.05,1010.56a6.05,6.05,0,0,1,2.19,2.54,8.55,8.55,0,0,1,.78,3.73,7.46,7.46,0,0,1-1.65,5,5.5,5.5,0,0,1-4.37,1.91h-2.95a.15.15,0,0,0-.17.17v9.67a.42.42,0,0,1-.13.3.4.4,0,0,1-.29.12h-3.2a.41.41,0,0,1-.42-.42v-23.54a.41.41,0,0,1,.42-.42h6.54A5.92,5.92,0,0,1,210.05,1010.56Zm-1.85,9.06a4.16,4.16,0,0,0,.79-2.69,4.42,4.42,0,0,0-.79-2.77,2.48,2.48,0,0,0-2.07-1h-2.08a.15.15,0,0,0-.17.17v7.13c0,.12.05.18.17.18h2.08A2.49,2.49,0,0,0,208.2,1019.62Z"/><path class="cls-65" d="M224.12,1033.66l-.66-3.65c0-.12-.08-.18-.21-.18h-5.08q-.21,0-.21.18l-.66,3.65a.39.39,0,0,1-.45.38h-3.17c-.32,0-.45-.15-.38-.45l5.15-23.51a.4.4,0,0,1,.45-.38h3.68a.42.42,0,0,1,.46.38l5.14,23.51v.14c0,.21-.12.31-.38.31h-3.23C224.29,1034,224.14,1033.91,224.12,1033.66Zm-5.36-7h3.86c.14,0,.2-.06.17-.18l-2-11c0-.07-.06-.1-.11-.1s-.08,0-.1.1l-2,11C218.56,1026.61,218.62,1026.67,218.76,1026.67Z"/><path class="cls-65" d="M240.55,1009.82a.4.4,0,0,1,.29-.12H244a.4.4,0,0,1,.29.12.41.41,0,0,1,.13.29v23.51a.42.42,0,0,1-.13.3.4.4,0,0,1-.29.12h-3.65a.44.44,0,0,1-.46-.35L234.72,1019q0-.11-.12-.09a.1.1,0,0,0-.09.12l0,14.64a.41.41,0,0,1-.12.3.42.42,0,0,1-.3.12H231a.41.41,0,0,1-.42-.42v-23.51a.4.4,0,0,1,.12-.29.41.41,0,0,1,.3-.12h3.58a.43.43,0,0,1,.45.34l5.22,14.64q0,.1.12.09a.1.1,0,0,0,.09-.12v-14.54A.4.4,0,0,1,240.55,1009.82Z"/><polygon class="cls-5" points="908.19 462.31 935.37 425.7 962.4 462.31 908.19 462.31"/><polygon class="cls-5" points="376.66 844.2 293.09 829.2 376.66 895.63 376.66 844.2"/><g class="cls-66"><path class="cls-67" d="M512.85,363.83c0-5.78.88-6.66,6.63-6.66H652.23c5.75,0,6.6.88,6.6,6.66v90.42c0,5.79-.85,6.66-6.6,6.66H519.48c-5.75,0-6.63-.87-6.63-6.66V363.83Z"/></g><path class="cls-68" d="M531.9,370h-5.14v22.49h3.47V384h1.67c3.47,0,5.16-2,5.16-5.58v-2.92c0-3.59-1.69-5.55-5.16-5.55Zm0,3.22c1.08,0,1.69.49,1.69,2.1v3.39c0,1.6-.61,2.13-1.69,2.13h-1.67v-7.62Z"/><path class="cls-68" d="M544.72,375.16c0-1.6.7-2.22,1.81-2.22s1.78.62,1.78,2.22v12.15c0,1.61-.67,2.22-1.78,2.22s-1.81-.61-1.81-2.22V375.16Zm-3.48,11.92c0,3.59,1.87,5.67,5.29,5.67s5.29-2.08,5.29-5.67V375.4c0-3.63-1.87-5.67-5.29-5.67s-5.29,2-5.29,5.67v11.68Z"/><polygon class="cls-68" points="557.68 392.48 566.89 392.48 566.89 389.27 561.16 389.27 561.16 369.99 557.68 369.99 557.68 392.48 557.68 392.48"/><polygon class="cls-68" points="571.76 392.48 575.24 392.48 575.24 369.99 571.76 369.99 571.76 392.48 571.76 392.48"/><polygon class="cls-68" points="579.88 373.21 583.5 373.21 583.5 392.48 587.01 392.48 587.01 373.21 590.63 373.21 590.63 369.99 579.88 369.99 579.88 373.21 579.88 373.21"/><polygon class="cls-68" points="594.95 392.48 598.43 392.48 598.43 369.99 594.95 369.99 594.95 392.48 594.95 392.48"/><path class="cls-68" d="M610.9,384.1v3.21c0,1.61-.7,2.19-1.81,2.19s-1.81-.58-1.81-2.19V375.16c0-1.6.7-2.22,1.81-2.22s1.81.62,1.81,2.22v2.4h3.27V375.4c0-3.63-1.75-5.67-5.17-5.67s-5.2,2-5.2,5.67v11.68c0,3.59,1.79,5.67,5.2,5.67s5.17-2.08,5.17-5.67v-3Z"/><path class="cls-68" d="M627.29,370h-5.12l-3.53,22.49h3.18l.62-4.09h4.26l.62,4.09h3.5L627.29,370Zm-2.72,4,1.66,11.4h-3.35l1.69-11.4Z"/><polygon class="cls-68" points="635.73 392.48 644.93 392.48 644.93 389.27 639.2 389.27 639.2 369.99 635.73 369.99 635.73 392.48 635.73 392.48"/><path class="cls-68" d="M537.53,421.08a6.7,6.7,0,0,1-.38-2.72v-3.48c0-2.36-.55-4.06-2.28-4.79,1.52-.75,2.25-2.25,2.25-4.58v-1.75c0-3.48-1.54-5.17-5.14-5.17h-5.22v22.49h3.47V411.9h1.2c1.58,0,2.28.79,2.28,2.87v3.53a7.6,7.6,0,0,0,.29,2.78ZM531.9,401.8c1.22,0,1.78.7,1.78,2.31v2.22c0,1.81-.79,2.36-2.11,2.36h-1.34V401.8Z"/><polygon class="cls-68" points="546.35 401.8 552.34 401.8 552.34 398.59 542.88 398.59 542.88 421.07 552.34 421.07 552.34 417.86 546.35 417.86 546.35 411.26 551.11 411.26 551.11 408.05 546.35 408.05 546.35 401.8 546.35 401.8"/><path class="cls-68" d="M557.16,404c0,6.43,6.78,7.27,6.78,11.92,0,1.6-.7,2.19-1.82,2.19s-1.78-.59-1.78-2.19V414.3h-3.27v1.37c0,3.59,1.75,5.67,5.17,5.67s5.17-2.08,5.17-5.67c0-6.42-6.77-7.3-6.77-11.91,0-1.61.61-2.22,1.72-2.22s1.72.61,1.72,2.22v.93h3.3V404c0-3.62-1.75-5.67-5.11-5.67s-5.11,2.05-5.11,5.67Z"/><polygon class="cls-68" points="575.79 401.8 581.78 401.8 581.78 398.59 572.32 398.59 572.32 421.07 581.78 421.07 581.78 417.86 575.79 417.86 575.79 411.26 580.55 411.26 580.55 408.05 575.79 408.05 575.79 401.8 575.79 401.8"/><path class="cls-68" d="M594.72,398.59h-5.08l-3.54,22.49h3.22l.58-4.09h4.27l.58,4.09h3.5l-3.53-22.49Zm-2.72,4L593.7,414h-3.36L592,402.56Z"/><path class="cls-68" d="M613.94,421.08a6.7,6.7,0,0,1-.38-2.72v-3.48c0-2.36-.56-4.06-2.31-4.79,1.55-.75,2.28-2.25,2.28-4.58v-1.75c0-3.48-1.55-5.17-5.14-5.17h-5.23v22.49h3.48V411.9h1.19c1.58,0,2.25.79,2.25,2.87v3.53a7.54,7.54,0,0,0,.32,2.78ZM608.3,401.8c1.23,0,1.75.7,1.75,2.31v2.22c0,1.81-.79,2.36-2.07,2.36h-1.34V401.8Z"/><path class="cls-68" d="M625.36,412.69v3.22c0,1.6-.7,2.19-1.81,2.19s-1.79-.59-1.79-2.19V403.76c0-1.61.68-2.22,1.79-2.22s1.81.61,1.81,2.22v2.39h3.27V404c0-3.62-1.75-5.67-5.17-5.67s-5.17,2.05-5.17,5.67v11.68c0,3.59,1.75,5.67,5.17,5.67s5.17-2.08,5.17-5.67v-3Z"/><polygon class="cls-68" points="637.45 411.44 641.39 411.44 641.39 421.07 644.93 421.07 644.93 398.59 641.39 398.59 641.39 408.23 637.45 408.23 637.45 398.59 634 398.59 634 421.07 637.45 421.07 637.45 411.44 637.45 411.44"/><path class="cls-68" d="M534.93,426.57h-5l-3.51,22h3.16l.61-4h4.21l.58,4h3.48l-3.51-22Zm-2.68,3.88,1.66,11.13h-3.3l1.64-11.13Z"/><path class="cls-68" d="M540.07,431.82c0,6.28,6.75,7.13,6.75,11.66,0,1.58-.7,2.13-1.78,2.13s-1.81-.55-1.81-2.13V441.9H540v1.37c0,3.51,1.75,5.52,5.14,5.52s5.11-2,5.11-5.52c0-6.28-6.72-7.12-6.72-11.65,0-1.58.64-2.16,1.72-2.16s1.73.58,1.73,2.16v.9h3.24v-.7c0-3.5-1.72-5.52-5.05-5.52s-5.09,2-5.09,5.52Z"/><path class="cls-68" d="M552.6,431.82c0,6.28,6.72,7.13,6.72,11.66,0,1.58-.7,2.13-1.78,2.13s-1.78-.55-1.78-2.13V441.9h-3.24v1.37c0,3.51,1.75,5.52,5.11,5.52s5.14-2,5.14-5.52c0-6.28-6.72-7.12-6.72-11.65,0-1.58.61-2.16,1.69-2.16s1.73.58,1.73,2.16v.9h3.27v-.7c0-3.5-1.73-5.52-5.08-5.52s-5.06,2-5.06,5.52Z"/><path class="cls-68" d="M568.7,431.62c0-1.58.7-2.16,1.78-2.16s1.78.58,1.78,2.16v11.86c0,1.58-.67,2.16-1.78,2.16s-1.78-.58-1.78-2.16V431.62Zm-3.42,11.65c0,3.51,1.84,5.52,5.2,5.52s5.23-2,5.23-5.52V431.82c0-3.5-1.84-5.52-5.23-5.52s-5.2,2-5.2,5.52v11.45Z"/><path class="cls-68" d="M584.79,440.35v3.13c0,1.58-.7,2.13-1.78,2.13s-1.78-.55-1.78-2.13V431.62c0-1.58.67-2.16,1.78-2.16s1.78.58,1.78,2.16V434H588v-2.17c0-3.5-1.75-5.52-5.11-5.52s-5.14,2-5.14,5.52v11.45c0,3.51,1.75,5.52,5.14,5.52s5.11-2,5.11-5.52v-2.92Z"/><polygon class="cls-68" points="591.27 448.53 594.72 448.53 594.72 426.57 591.27 426.57 591.27 448.53 591.27 448.53"/><path class="cls-68" d="M605.15,426.57h-5l-3.5,22h3.15l.62-4h4.2l.59,4h3.47l-3.5-22Zm-2.69,3.88,1.67,11.13h-3.31l1.64-11.13Z"/><polygon class="cls-68" points="609.73 429.69 613.33 429.69 613.33 448.53 616.77 448.53 616.77 429.69 620.36 429.69 620.36 426.57 609.73 426.57 609.73 429.69 609.73 429.69"/><polygon class="cls-68" points="626 429.69 631.93 429.69 631.93 426.57 622.55 426.57 622.55 448.53 631.93 448.53 631.93 445.4 626 445.4 626 438.95 630.7 438.95 630.7 435.82 626 435.82 626 429.69 626 429.69"/><path class="cls-68" d="M634.62,431.82c0,6.28,6.74,7.13,6.74,11.66,0,1.58-.7,2.13-1.78,2.13s-1.78-.55-1.78-2.13V441.9h-3.27v1.37c0,3.51,1.75,5.52,5.14,5.52s5.11-2,5.11-5.52c0-6.28-6.72-7.12-6.72-11.65,0-1.58.65-2.16,1.73-2.16s1.72.58,1.72,2.16v.9h3.24v-.7c0-3.5-1.72-5.52-5-5.52s-5.08,2-5.08,5.52Z"/><path class="cls-4" d="M75.14,298.2a.39.39,0,0,1-.13-.3V274.39a.39.39,0,0,1,.13-.3.4.4,0,0,1,.29-.12h3.2a.41.41,0,0,1,.3.12.42.42,0,0,1,.12.3v20.28a.15.15,0,0,0,.17.17h7.52A.4.4,0,0,1,87,295a.41.41,0,0,1,.12.3v2.64a.42.42,0,0,1-.12.3.4.4,0,0,1-.29.12H75.43A.4.4,0,0,1,75.14,298.2Z"/><path class="cls-4" d="M91.1,296.67a7.23,7.23,0,0,1-1.79-5.1V274.39a.42.42,0,0,1,.12-.3.41.41,0,0,1,.3-.12h3.19a.41.41,0,0,1,.3.12.42.42,0,0,1,.12.3V292a3.47,3.47,0,0,0,.7,2.26,2.38,2.38,0,0,0,3.68,0,3.47,3.47,0,0,0,.7-2.26v-17.6a.42.42,0,0,1,.12-.3.41.41,0,0,1,.3-.12H102a.4.4,0,0,1,.29.12.42.42,0,0,1,.12.3v17.18a7.19,7.19,0,0,1-1.8,5.1,6.87,6.87,0,0,1-9.55,0Z"/><path class="cls-4" d="M106.19,298.2a.42.42,0,0,1-.12-.3V274.39a.42.42,0,0,1,.12-.3.41.41,0,0,1,.3-.12h3.2a.4.4,0,0,1,.29.12.43.43,0,0,1,.13.3V297.9a.43.43,0,0,1-.13.3.4.4,0,0,1-.29.12h-3.2A.41.41,0,0,1,106.19,298.2Z"/><path class="cls-4" d="M114.94,296.86a6.11,6.11,0,0,1-1.77-4.56v-.9a.41.41,0,0,1,.12-.3.4.4,0,0,1,.29-.12h3.17a.4.4,0,0,1,.29.12.42.42,0,0,1,.13.3v.69a3.35,3.35,0,0,0,.67,2.19,2.17,2.17,0,0,0,1.76.84,2.23,2.23,0,0,0,1.77-.79,3,3,0,0,0,.7-2.06,3.12,3.12,0,0,0-.38-1.57,5,5,0,0,0-1.08-1.25c-.47-.4-1.21-1-2.23-1.71a30.46,30.46,0,0,1-2.8-2.22,8.4,8.4,0,0,1-1.77-2.35,6.75,6.75,0,0,1-.71-3.18,6.14,6.14,0,0,1,1.73-4.59,7,7,0,0,1,9.26.08,6.48,6.48,0,0,1,1.77,4.75v.84a.4.4,0,0,1-.12.29.41.41,0,0,1-.3.12h-3.13a.41.41,0,0,1-.41-.41v-.91a3.3,3.3,0,0,0-.68-2.17,2.21,2.21,0,0,0-1.79-.82,2.17,2.17,0,0,0-1.71.75,3,3,0,0,0-.66,2.07,3.27,3.27,0,0,0,.71,2.12,16.92,16.92,0,0,0,2.8,2.4,39,39,0,0,1,3.2,2.56,7.39,7.39,0,0,1,1.67,2.17,6.18,6.18,0,0,1,.59,2.82,6.44,6.44,0,0,1-1.77,4.74,6.25,6.25,0,0,1-4.66,1.8A6.36,6.36,0,0,1,114.94,296.86Z"/><path class="cls-4" d="M145.33,297.93l-.66-3.65c0-.11-.07-.17-.2-.17h-5.08c-.14,0-.21.06-.21.17l-.66,3.65a.4.4,0,0,1-.45.39H134.9c-.32,0-.45-.15-.38-.46l5.15-23.51a.41.41,0,0,1,.45-.38h3.68a.42.42,0,0,1,.46.38l5.14,23.51V298c0,.21-.12.32-.38.32h-3.23A.4.4,0,0,1,145.33,297.93Zm-5.35-7h3.86c.14,0,.2-.05.17-.17l-2-11c0-.07-.06-.1-.11-.1s-.08,0-.1.1l-2,11C139.78,290.89,139.84,290.94,140,290.94Z"/><path class="cls-4" d="M151.8,297.69a2.4,2.4,0,0,1-.69-1.77,2.36,2.36,0,0,1,2.47-2.47,2.33,2.33,0,0,1,1.75.69,2.43,2.43,0,0,1,.68,1.78,2.38,2.38,0,0,1-2.43,2.47A2.44,2.44,0,0,1,151.8,297.69Z"/><path class="cls-4" d="M178,277.33a.4.4,0,0,1-.29.12h-7.48a.15.15,0,0,0-.17.17v6.58a.15.15,0,0,0,.17.17h4.42a.4.4,0,0,1,.29.12.41.41,0,0,1,.12.3v2.68a.41.41,0,0,1-.41.41h-4.42c-.12,0-.17.06-.17.18v9.84a.43.43,0,0,1-.13.3.4.4,0,0,1-.29.12h-3.2a.41.41,0,0,1-.3-.12.42.42,0,0,1-.12-.3V274.39a.42.42,0,0,1,.12-.3.41.41,0,0,1,.3-.12h11.27a.4.4,0,0,1,.29.12.42.42,0,0,1,.12.3V277A.41.41,0,0,1,178,277.33Z"/><path class="cls-4" d="M192.51,277.33a.41.41,0,0,1-.3.12H184.7a.15.15,0,0,0-.17.17v6.58a.15.15,0,0,0,.17.17h4.45a.41.41,0,0,1,.42.42v2.68a.4.4,0,0,1-.12.29.41.41,0,0,1-.3.12H184.7c-.11,0-.17.06-.17.18v6.61a.15.15,0,0,0,.17.17h7.51a.41.41,0,0,1,.42.42v2.64a.42.42,0,0,1-.12.3.41.41,0,0,1-.3.12h-11.3a.38.38,0,0,1-.29-.12.39.39,0,0,1-.13-.3V274.39a.39.39,0,0,1,.13-.3.38.38,0,0,1,.29-.12h11.3a.41.41,0,0,1,.3.12.42.42,0,0,1,.12.3V277A.41.41,0,0,1,192.51,277.33Z"/><path class="cls-4" d="M204.8,298l-3-10c0-.09-.11-.14-.18-.14h-1.84a.15.15,0,0,0-.17.17v9.88a.41.41,0,0,1-.42.42H196a.38.38,0,0,1-.29-.12.39.39,0,0,1-.13-.3V274.39a.39.39,0,0,1,.13-.3A.38.38,0,0,1,196,274h6.54a6,6,0,0,1,3.25.89,5.88,5.88,0,0,1,2.19,2.5,8.46,8.46,0,0,1,.78,3.71,7.79,7.79,0,0,1-.83,3.72,5.59,5.59,0,0,1-2.33,2.36.15.15,0,0,0-.1.21l3.4,10.47a.31.31,0,0,1,0,.17c0,.21-.13.32-.38.32h-3.34A.44.44,0,0,1,204.8,298Zm-5.14-20.35v6.92c0,.12.05.18.17.18H202a2.49,2.49,0,0,0,2-1,4.09,4.09,0,0,0,.78-2.64,4.19,4.19,0,0,0-.78-2.66,2.47,2.47,0,0,0-2-1h-2.12A.15.15,0,0,0,199.66,277.62Z"/><path class="cls-4" d="M221.66,274.09A.38.38,0,0,1,222,274h3.17a.4.4,0,0,1,.29.12.42.42,0,0,1,.12.3V297.9a.42.42,0,0,1-.12.3.4.4,0,0,1-.29.12h-3.66A.44.44,0,0,1,221,298l-5.18-14.75c0-.07-.06-.1-.12-.08a.1.1,0,0,0-.09.12l0,14.64a.39.39,0,0,1-.13.3.4.4,0,0,1-.29.12h-3.17a.4.4,0,0,1-.29-.12.42.42,0,0,1-.12-.3V274.39a.42.42,0,0,1,.12-.3.4.4,0,0,1,.29-.12h3.59a.44.44,0,0,1,.45.35L221.33,289q0,.1.12.09c.05,0,.08-.05.08-.12V274.39A.39.39,0,0,1,221.66,274.09Z"/><path class="cls-4" d="M238.71,297.93l-.66-3.65c0-.11-.07-.17-.21-.17h-5.07c-.14,0-.21.06-.21.17l-.66,3.65a.4.4,0,0,1-.46.39h-3.16c-.32,0-.45-.15-.38-.46L233,274.35a.42.42,0,0,1,.46-.38h3.68a.41.41,0,0,1,.45.38l5.15,23.51V298c0,.21-.13.32-.38.32h-3.23A.4.4,0,0,1,238.71,297.93Zm-5.35-7h3.86c.14,0,.19-.05.17-.17l-2-11c0-.07-.05-.1-.1-.1s-.08,0-.1.1l-2,11C233.16,290.89,233.22,290.94,233.36,290.94Z"/><path class="cls-4" d="M255.15,274.09a.38.38,0,0,1,.29-.12h3.17a.4.4,0,0,1,.29.12.42.42,0,0,1,.12.3V297.9a.42.42,0,0,1-.12.3.4.4,0,0,1-.29.12H255a.44.44,0,0,1-.45-.35l-5.18-14.75c0-.07-.06-.1-.12-.08a.1.1,0,0,0-.09.12l0,14.64a.39.39,0,0,1-.13.3.4.4,0,0,1-.29.12h-3.17a.4.4,0,0,1-.29-.12.42.42,0,0,1-.12-.3V274.39a.42.42,0,0,1,.12-.3.4.4,0,0,1,.29-.12h3.59a.44.44,0,0,1,.45.35L254.82,289q0,.1.12.09c.05,0,.08-.05.08-.12V274.39A.39.39,0,0,1,255.15,274.09Z"/><path class="cls-4" d="M262.9,298.2a.42.42,0,0,1-.12-.3V274.39a.42.42,0,0,1,.12-.3.41.41,0,0,1,.3-.12h5.94a6.43,6.43,0,0,1,4.78,1.81,6.56,6.56,0,0,1,1.8,4.83v11.06a6.57,6.57,0,0,1-1.8,4.84,6.43,6.43,0,0,1-4.78,1.81H263.2A.41.41,0,0,1,262.9,298.2Zm4.09-3.36,2.08,0a2.21,2.21,0,0,0,1.86-.92,4,4,0,0,0,.75-2.45V280.86a4,4,0,0,0-.71-2.49,2.33,2.33,0,0,0-1.93-.92H267c-.12,0-.18.06-.18.17v17.05C266.81,294.78,266.87,294.84,267,294.84Z"/><path class="cls-4" d="M291.07,277.33a.4.4,0,0,1-.29.12h-7.52a.15.15,0,0,0-.17.17v6.58a.15.15,0,0,0,.17.17h4.45a.41.41,0,0,1,.42.42v2.68a.4.4,0,0,1-.12.29.41.41,0,0,1-.3.12h-4.45c-.11,0-.17.06-.17.18v6.61a.15.15,0,0,0,.17.17h7.52a.4.4,0,0,1,.29.12.41.41,0,0,1,.12.3v2.64a.42.42,0,0,1-.12.3.4.4,0,0,1-.29.12H279.47a.4.4,0,0,1-.29-.12.39.39,0,0,1-.13-.3V274.39a.39.39,0,0,1,.13-.3.4.4,0,0,1,.29-.12h11.31a.4.4,0,0,1,.29.12.42.42,0,0,1,.12.3V277A.41.41,0,0,1,291.07,277.33Z"/><path class="cls-4" d="M293.3,298.2a.43.43,0,0,1-.13-.3v-2.78a1.27,1.27,0,0,1,.11-.52l7.79-16.94a.17.17,0,0,0,0-.14.1.1,0,0,0-.1-.07h-7.38a.4.4,0,0,1-.29-.12.42.42,0,0,1-.13-.3v-2.64a.43.43,0,0,1,.13-.3.4.4,0,0,1,.29-.12H305a.38.38,0,0,1,.29.12.39.39,0,0,1,.13.3v2.78a1.47,1.47,0,0,1-.11.52l-7.79,16.94a.17.17,0,0,0,0,.14.11.11,0,0,0,.11.07H305a.38.38,0,0,1,.29.12.38.38,0,0,1,.13.3v2.64a.39.39,0,0,1-.13.3.38.38,0,0,1-.29.12H293.59A.4.4,0,0,1,293.3,298.2Z"/><path class="cls-65" d="M81,315.83a.4.4,0,0,1,.29-.12h3.17a.4.4,0,0,1,.29.12.37.37,0,0,1,.13.29v23.51a.38.38,0,0,1-.13.3.4.4,0,0,1-.29.12H80.79a.43.43,0,0,1-.46-.35L75.15,325q0-.1-.12-.09a.1.1,0,0,0-.09.12l0,14.64a.41.41,0,0,1-.42.42H71.4a.41.41,0,0,1-.42-.42V316.12a.4.4,0,0,1,.12-.29.41.41,0,0,1,.3-.12H75a.43.43,0,0,1,.45.34l5.22,14.65a.09.09,0,0,0,.12.08.1.1,0,0,0,.09-.12V316.12A.4.4,0,0,1,81,315.83Z"/><path class="cls-65" d="M90,338.52a6.43,6.43,0,0,1-1.83-4.8V322a6.43,6.43,0,0,1,1.83-4.8,7.34,7.34,0,0,1,9.65,0,6.4,6.4,0,0,1,1.84,4.8v11.68a6.4,6.4,0,0,1-1.84,4.8,7.34,7.34,0,0,1-9.65,0ZM96.75,336a3,3,0,0,0,.73-2.13v-12a3.09,3.09,0,0,0-.73-2.14,2.46,2.46,0,0,0-1.91-.81,2.41,2.41,0,0,0-1.9.81,3.18,3.18,0,0,0-.71,2.14v12a3.13,3.13,0,0,0,.71,2.13,2.39,2.39,0,0,0,1.9.82A2.44,2.44,0,0,0,96.75,336Z"/><path class="cls-65" d="M114,339.7l-3-10c0-.09-.11-.14-.18-.14h-1.84c-.12,0-.17.06-.17.18v9.87a.41.41,0,0,1-.12.3.44.44,0,0,1-.3.12h-3.2a.42.42,0,0,1-.3-.12.41.41,0,0,1-.12-.3V316.12a.4.4,0,0,1,.12-.29.42.42,0,0,1,.3-.12h6.54a6,6,0,0,1,3.25.88,5.91,5.91,0,0,1,2.19,2.51,8.39,8.39,0,0,1,.78,3.7,7.74,7.74,0,0,1-.83,3.72,5.61,5.61,0,0,1-2.33,2.37c-.09,0-.13.09-.11.21l3.41,10.46a.34.34,0,0,1,0,.18c0,.21-.13.31-.38.31h-3.34A.43.43,0,0,1,114,339.7Zm-5.14-20.34v6.92c0,.12,0,.17.17.17h2.12a2.48,2.48,0,0,0,2-1,4.11,4.11,0,0,0,.78-2.64,4.22,4.22,0,0,0-.78-2.67,2.47,2.47,0,0,0-2-1h-2.12C108.94,319.18,108.89,319.24,108.89,319.36Z"/><path class="cls-65" d="M133.67,315.83a.4.4,0,0,1,.12.29v2.65a.4.4,0,0,1-.12.29.42.42,0,0,1-.3.12H129c-.11,0-.17.06-.17.18v20.27a.41.41,0,0,1-.42.42h-3.2a.4.4,0,0,1-.29-.12.41.41,0,0,1-.12-.3V319.36a.16.16,0,0,0-.18-.18H120.4a.41.41,0,0,1-.3-.12.4.4,0,0,1-.12-.29v-2.65a.4.4,0,0,1,.12-.29.41.41,0,0,1,.3-.12h13A.42.42,0,0,1,133.67,315.83Z"/><path class="cls-65" d="M145.53,315.83a.4.4,0,0,1,.29-.12H149a.41.41,0,0,1,.3.12.4.4,0,0,1,.12.29v23.51a.41.41,0,0,1-.42.42h-3.2a.4.4,0,0,1-.29-.12.38.38,0,0,1-.13-.3v-9.84a.15.15,0,0,0-.17-.17h-4.42a.15.15,0,0,0-.17.17v9.84a.41.41,0,0,1-.42.42H137a.4.4,0,0,1-.29-.12.41.41,0,0,1-.12-.3V316.12a.41.41,0,0,1,.41-.41h3.2a.41.41,0,0,1,.3.12.4.4,0,0,1,.12.29v9.81a.15.15,0,0,0,.17.17h4.42c.12,0,.17-.05.17-.17v-9.81A.37.37,0,0,1,145.53,315.83Z"/><path class="cls-65" d="M165.07,319.06a.4.4,0,0,1-.29.12h-7.52c-.11,0-.17.06-.17.18v6.57a.15.15,0,0,0,.17.17h4.46a.41.41,0,0,1,.29.13.4.4,0,0,1,.12.29v2.68a.42.42,0,0,1-.12.3.4.4,0,0,1-.29.12h-4.46a.15.15,0,0,0-.17.17v6.61a.15.15,0,0,0,.17.17h7.52a.4.4,0,0,1,.29.12.42.42,0,0,1,.12.3v2.64a.41.41,0,0,1-.12.3.4.4,0,0,1-.29.12H153.47a.4.4,0,0,1-.29-.12.41.41,0,0,1-.12-.3V316.12a.41.41,0,0,1,.41-.41h11.31a.41.41,0,0,1,.41.41v2.65A.4.4,0,0,1,165.07,319.06Z"/><path class="cls-65" d="M177.37,339.7l-3-10c0-.09-.1-.14-.17-.14h-1.85c-.11,0-.17.06-.17.18v9.87a.41.41,0,0,1-.42.42h-3.2a.4.4,0,0,1-.29-.12.38.38,0,0,1-.13-.3V316.12a.37.37,0,0,1,.13-.29.4.4,0,0,1,.29-.12h6.54a6,6,0,0,1,3.25.88,5.91,5.91,0,0,1,2.19,2.51,8.39,8.39,0,0,1,.79,3.7,7.74,7.74,0,0,1-.84,3.72,5.61,5.61,0,0,1-2.33,2.37c-.09,0-.13.09-.1.21l3.4,10.46a.34.34,0,0,1,0,.18c0,.21-.13.31-.38.31h-3.34A.43.43,0,0,1,177.37,339.7Zm-5.15-20.34v6.92a.15.15,0,0,0,.17.17h2.12a2.48,2.48,0,0,0,2-1,4.11,4.11,0,0,0,.78-2.64,4.22,4.22,0,0,0-.78-2.67,2.47,2.47,0,0,0-2-1h-2.12C172.28,319.18,172.22,319.24,172.22,319.36Z"/><path class="cls-65" d="M194.22,315.83a.4.4,0,0,1,.29-.12h3.17a.41.41,0,0,1,.41.41v23.51a.41.41,0,0,1-.12.3.4.4,0,0,1-.29.12H194a.43.43,0,0,1-.46-.35L188.39,325q0-.1-.12-.09a.1.1,0,0,0-.09.12l0,14.64a.41.41,0,0,1-.12.3.42.42,0,0,1-.3.12h-3.17a.4.4,0,0,1-.29-.12.41.41,0,0,1-.12-.3V316.12a.41.41,0,0,1,.41-.41h3.59a.43.43,0,0,1,.45.34l5.22,14.65a.09.09,0,0,0,.12.08c.06,0,.08,0,.08-.12V316.12A.37.37,0,0,1,194.22,315.83Z"/><path class="cls-65" d="M218.23,339.67l-.66-3.65q0-.18-.21-.18h-5.08q-.21,0-.21.18l-.66,3.65c0,.25-.17.38-.45.38H207.8q-.5,0-.39-.45l5.15-23.51a.41.41,0,0,1,.45-.38h3.69a.41.41,0,0,1,.45.38l5.15,23.51v.14c0,.21-.13.31-.38.31h-3.24C218.4,340.05,218.25,339.92,218.23,339.67Zm-5.36-7h3.86q.21,0,.18-.18l-2-11c0-.07-.06-.1-.1-.1s-.08,0-.11.1l-2,11C212.68,332.62,212.73,332.68,212.87,332.68Z"/><path class="cls-65" d="M233.84,339.7l-3-10c0-.09-.11-.14-.18-.14h-1.84c-.12,0-.17.06-.17.18v9.87a.41.41,0,0,1-.12.3.42.42,0,0,1-.3.12h-3.2a.38.38,0,0,1-.29-.12.38.38,0,0,1-.13-.3V316.12a.37.37,0,0,1,.13-.29.38.38,0,0,1,.29-.12h6.54a6,6,0,0,1,3.25.88,5.91,5.91,0,0,1,2.19,2.51,8.39,8.39,0,0,1,.78,3.7,7.74,7.74,0,0,1-.83,3.72,5.61,5.61,0,0,1-2.33,2.37c-.09,0-.13.09-.1.21l3.4,10.46a.34.34,0,0,1,0,.18c0,.21-.13.31-.38.31H234.3A.43.43,0,0,1,233.84,339.7Zm-5.14-20.34v6.92c0,.12.05.17.17.17H231a2.48,2.48,0,0,0,2-1,4.11,4.11,0,0,0,.78-2.64,4.22,4.22,0,0,0-.78-2.67,2.47,2.47,0,0,0-2-1h-2.12C228.75,319.18,228.7,319.24,228.7,319.36Z"/><path class="cls-65" d="M240.82,339.93a.41.41,0,0,1-.12-.3V316.12a.41.41,0,0,1,.41-.41h3.2a.41.41,0,0,1,.3.12.4.4,0,0,1,.12.29v23.51a.41.41,0,0,1-.42.42h-3.2A.4.4,0,0,1,240.82,339.93Z"/><path class="cls-65" d="M247.6,339.93a.41.41,0,0,1-.12-.3v-2.78a1.3,1.3,0,0,1,.1-.52l7.79-16.94a.14.14,0,0,0-.1-.21H247.9a.41.41,0,0,1-.3-.12.4.4,0,0,1-.12-.29v-2.65a.4.4,0,0,1,.12-.29.41.41,0,0,1,.3-.12h11.4a.41.41,0,0,1,.3.12.4.4,0,0,1,.12.29v2.79a1.76,1.76,0,0,1-.1.52l-7.79,16.93a.12.12,0,0,0,0,.14.1.1,0,0,0,.1.07h7.37a.41.41,0,0,1,.3.12.42.42,0,0,1,.12.3v2.64a.41.41,0,0,1-.42.42H247.9A.41.41,0,0,1,247.6,339.93Z"/><path class="cls-65" d="M264,338.52a6.46,6.46,0,0,1-1.82-4.8V322a6.46,6.46,0,0,1,1.82-4.8,7.35,7.35,0,0,1,9.66,0,6.43,6.43,0,0,1,1.84,4.8v11.68a6.43,6.43,0,0,1-1.84,4.8,7.35,7.35,0,0,1-9.66,0Zm6.74-2.49a3.09,3.09,0,0,0,.72-2.13v-12a3.13,3.13,0,0,0-.72-2.14,2.47,2.47,0,0,0-1.92-.81,2.38,2.38,0,0,0-1.89.81,3.13,3.13,0,0,0-.72,2.14v12a3.09,3.09,0,0,0,.72,2.13,2.36,2.36,0,0,0,1.89.82A2.45,2.45,0,0,0,270.75,336Z"/><path class="cls-65" d="M288.85,315.83a.4.4,0,0,1,.29-.12h3.17a.41.41,0,0,1,.41.41v23.51a.41.41,0,0,1-.12.3.4.4,0,0,1-.29.12h-3.65a.43.43,0,0,1-.46-.35L283,325q0-.1-.12-.09a.1.1,0,0,0-.09.12l0,14.64a.41.41,0,0,1-.12.3.42.42,0,0,1-.3.12h-3.17a.4.4,0,0,1-.29-.12.41.41,0,0,1-.12-.3V316.12a.41.41,0,0,1,.41-.41h3.59a.43.43,0,0,1,.45.34l5.22,14.65a.09.09,0,0,0,.12.08c.06,0,.08,0,.08-.12V316.12A.37.37,0,0,1,288.85,315.83Z"/><path class="cls-65" d="M305.9,339.67l-.66-3.65c0-.12-.07-.18-.2-.18H300q-.21,0-.21.18l-.66,3.65a.4.4,0,0,1-.45.38h-3.17c-.32,0-.45-.15-.38-.45l5.15-23.51a.4.4,0,0,1,.45-.38h3.68a.42.42,0,0,1,.46.38L310,339.6v.14c0,.21-.12.31-.38.31h-3.23A.4.4,0,0,1,305.9,339.67Zm-5.35-7h3.86c.14,0,.2-.06.17-.18l-2-11c0-.07-.06-.1-.11-.1s-.08,0-.1.1l-2,11C300.35,332.62,300.41,332.68,300.55,332.68Z"/><path class="cls-65" d="M121.37,380.13a7.18,7.18,0,0,1-1.79-5.09V357.86a.41.41,0,0,1,.42-.42h3.2a.4.4,0,0,1,.29.12.38.38,0,0,1,.13.3v17.6a3.54,3.54,0,0,0,.69,2.26,2.39,2.39,0,0,0,3.69,0,3.54,3.54,0,0,0,.69-2.26v-17.6a.38.38,0,0,1,.13-.3.4.4,0,0,1,.29-.12h3.2a.42.42,0,0,1,.3.12.41.41,0,0,1,.12.3V375a7.15,7.15,0,0,1-1.81,5.09,6.87,6.87,0,0,1-9.55,0Z"/><path class="cls-65" d="M146,357.56a.41.41,0,0,1,.3-.12h3.16a.41.41,0,0,1,.42.42v23.51a.4.4,0,0,1-.12.29.38.38,0,0,1-.3.13h-3.65a.44.44,0,0,1-.45-.35l-5.18-14.75c0-.07-.07-.1-.13-.09a.13.13,0,0,0-.08.13l0,14.64a.4.4,0,0,1-.12.29.38.38,0,0,1-.3.13h-3.16a.39.39,0,0,1-.3-.13.4.4,0,0,1-.12-.29V357.86a.41.41,0,0,1,.12-.3.42.42,0,0,1,.3-.12H140a.44.44,0,0,1,.45.35l5.22,14.64q0,.1.12.09a.11.11,0,0,0,.09-.12V357.86A.41.41,0,0,1,146,357.56Z"/><path class="cls-65" d="M153.79,381.66a.37.37,0,0,1-.13-.29V357.86a.38.38,0,0,1,.13-.3.38.38,0,0,1,.29-.12h3.2a.41.41,0,0,1,.42.42v23.51a.4.4,0,0,1-.12.29.38.38,0,0,1-.3.13h-3.2A.36.36,0,0,1,153.79,381.66Z"/><path class="cls-65" d="M165.52,381.4l-5-23.51,0-.14c0-.21.12-.31.38-.31h3.51c.28,0,.43.13.45.38l2.89,16.73c0,.07.06.11.1.11s.08,0,.11-.11l2.81-16.73a.4.4,0,0,1,.46-.38h3.4c.31,0,.42.15.35.45l-5,23.51a.41.41,0,0,1-.45.39H166A.43.43,0,0,1,165.52,381.4Z"/><path class="cls-65" d="M189.85,360.8a.41.41,0,0,1-.3.12H182a.15.15,0,0,0-.17.17v6.58a.15.15,0,0,0,.17.17h4.45a.41.41,0,0,1,.42.42v2.67a.41.41,0,0,1-.42.42H182c-.11,0-.17.06-.17.18v6.6c0,.12.06.18.17.18h7.51a.41.41,0,0,1,.3.12.4.4,0,0,1,.12.29v2.65a.4.4,0,0,1-.12.29.38.38,0,0,1-.3.13h-11.3a.36.36,0,0,1-.29-.13.37.37,0,0,1-.13-.29V357.86a.38.38,0,0,1,.13-.3.38.38,0,0,1,.29-.12h11.3a.41.41,0,0,1,.42.42v2.64A.41.41,0,0,1,189.85,360.8Z"/><path class="cls-65" d="M202.14,381.44l-2.95-10c-.05-.1-.11-.14-.18-.14h-1.84a.15.15,0,0,0-.17.17v9.88a.4.4,0,0,1-.12.29.39.39,0,0,1-.3.13h-3.2a.39.39,0,0,1-.3-.13.4.4,0,0,1-.12-.29V357.86a.41.41,0,0,1,.12-.3.42.42,0,0,1,.3-.12h6.54a6,6,0,0,1,3.25.89,5.88,5.88,0,0,1,2.19,2.5,8.43,8.43,0,0,1,.78,3.71,7.79,7.79,0,0,1-.83,3.72,5.59,5.59,0,0,1-2.33,2.36c-.09,0-.13.09-.1.21l3.4,10.47a.31.31,0,0,1,0,.17c0,.21-.13.32-.38.32H202.6A.44.44,0,0,1,202.14,381.44ZM197,361.09V368c0,.12.05.18.17.18h2.12a2.49,2.49,0,0,0,2-1,4.11,4.11,0,0,0,.78-2.64,4.19,4.19,0,0,0-.78-2.66,2.47,2.47,0,0,0-2-1h-2.12A.15.15,0,0,0,197,361.09Z"/><path class="cls-65" d="M210.21,380.32a6.07,6.07,0,0,1-1.77-4.55v-.91a.4.4,0,0,1,.12-.29.41.41,0,0,1,.3-.12H212a.41.41,0,0,1,.3.12.4.4,0,0,1,.12.29v.7a3.39,3.39,0,0,0,.68,2.19,2.14,2.14,0,0,0,1.75.84,2.3,2.3,0,0,0,1.78-.79,3,3,0,0,0,.69-2.07,3.11,3.11,0,0,0-.38-1.56,4.59,4.59,0,0,0-1.08-1.25c-.46-.4-1.2-1-2.22-1.71a29.14,29.14,0,0,1-2.8-2.22,8.43,8.43,0,0,1-1.78-2.35,6.9,6.9,0,0,1-.71-3.18,6.11,6.11,0,0,1,1.74-4.59,7,7,0,0,1,9.25.08,6.48,6.48,0,0,1,1.77,4.75v.84a.41.41,0,0,1-.41.41h-3.13a.41.41,0,0,1-.3-.12.4.4,0,0,1-.12-.29v-.91a3.3,3.3,0,0,0-.68-2.17,2.2,2.2,0,0,0-1.79-.82,2.15,2.15,0,0,0-1.7.75,3,3,0,0,0-.67,2.07,3.22,3.22,0,0,0,.72,2.12,16.5,16.5,0,0,0,2.8,2.4c1.41,1,2.48,1.89,3.2,2.55a7.93,7.93,0,0,1,1.67,2.18,6.29,6.29,0,0,1,.59,2.81,6.41,6.41,0,0,1-1.78,4.75,6.23,6.23,0,0,1-4.66,1.79A6.39,6.39,0,0,1,210.21,380.32Z"/><path class="cls-65" d="M224.35,381.66a.4.4,0,0,1-.12-.29V357.86a.41.41,0,0,1,.42-.42h3.2a.4.4,0,0,1,.29.12.41.41,0,0,1,.12.3v23.51a.4.4,0,0,1-.12.29.37.37,0,0,1-.29.13h-3.2A.38.38,0,0,1,224.35,381.66Z"/><path class="cls-65" d="M244.8,357.56a.41.41,0,0,1,.12.3v2.64a.41.41,0,0,1-.42.42h-4.41c-.12,0-.18.06-.18.17v20.28a.4.4,0,0,1-.12.29.37.37,0,0,1-.29.13h-3.2a.38.38,0,0,1-.3-.13.4.4,0,0,1-.12-.29V361.09a.15.15,0,0,0-.17-.17h-4.18a.4.4,0,0,1-.29-.12.38.38,0,0,1-.13-.3v-2.64a.38.38,0,0,1,.13-.3.4.4,0,0,1,.29-.12h13A.41.41,0,0,1,244.8,357.56Z"/><path class="cls-65" d="M251.89,381.63a.41.41,0,0,1-.12-.3v-9.49l0-.21-4.84-13.7a.48.48,0,0,1,0-.18c0-.21.13-.31.38-.31h3.34a.47.47,0,0,1,.49.35l2.61,8.94c0,.07.05.1.1.1s.08,0,.1-.1l2.61-8.94a.46.46,0,0,1,.49-.35h3.34a.39.39,0,0,1,.31.12.41.41,0,0,1,0,.37l-4.84,13.7,0,.21v9.49a.41.41,0,0,1-.12.3.44.44,0,0,1-.3.12h-3.2A.42.42,0,0,1,251.89,381.63Z"/><polygon class="cls-5" points="369.08 89.67 270.5 128.54 369.08 118 369.08 89.67"/></g><g id="Layer_2" data-name="Layer 2"><path class="cls-69" d="M361.8,366.26V280.47c-1.89-12.8-10.17-16.57-10.17-16.57-.37-15.81-20.7-21.46-20.7-21.46l-293.48.76s-23.39-2.53-26.76,26.41,0,81.45,0,81.45-5.06,7.84,8.78,19.73c0,0,5.18,17.17,18,21.87H335a26.58,26.58,0,0,0,26.76-26.4V269.61"/><path class="cls-69" d="M1071.65,375.71V296.77c-1.87-11.77-10.08-15.24-10.08-15.24-.38-14.54-20.55-19.74-20.55-19.74l-291.22.7s-23.21-2.34-26.55,24.29,0,74.94,0,74.94-5,7.21,8.7,18.15c0,0,5.15,15.8,17.85,20.13h295.3c14.67,0,26.55-10.88,26.55-24.29V286.78"/><path class="cls-69" d="M369.08,1039v-79.7C367.2,947.37,359,943.88,359,943.88c-.37-14.69-20.6-19.94-20.6-19.94l-292,.71s-23.27-2.36-26.62,24.53,0,75.66,0,75.66-5,7.28,8.73,18.33c0,0,5.16,15.94,17.89,20.32H342.45c14.71,0,26.63-11,26.63-24.53V949.18"/><path class="cls-70" d="M30.68,242.44s4-11.86,10.73-15.24,68.33-43.49,72.84-44,0-4.52,0-4.52h-4.51s14.11-6.78,13-33.32c0,0-16.38-9-19.2-28.23,0,0-9.6-8.47,1.12-35.58s7.91-46.85,32.76-59,31.06-3.68,31.06-3.68,7.34-7.44,14.68-2.87,37.1,25.46,38.31,29.41,11.95,15.81,11.95,24.28S230,82.07,230,82.07l7.34,5.08v5.08L234,92.8v8.47L230,109.1l2.26,14.19s1.69,20.89-1.13,23.15-12.49,10.73-8.79,15.25-4.76,11.29,5.4,15.25,15.25,8.47,18.07,8.47,35.58,9.6,35.58,9.6l24.84,11.86s10.7,12.42,13.54,12.42,10.75,10.73,10.75,13.55,3.46,3.91,4.83,11.27S30.68,242.44,30.68,242.44Z"/><path class="cls-70" d="M732.81,265.55s-3-5.6,6.57-14.07,7.76-29.93,20.54-32.75,13.05-9.6,28.44-8.48,29.52-3.95,28.95-7.34c0,0-11.86-9-8.47-15.24,0,0-9.6,4.05-11.29,4s-11.3-10.78-2.83-19.82,2.26-23.21,4.52-30.24,5.08-16.06,13-21.71c0,0-4.52-26.59-1.13-30.23s5.68-13.25,6.23-15.51-4.5-24.85,0-29.93,11.84-23.69,24.83-21.73,22-.14,22-.14S877.17,9.78,880,9.78,902.5,1.34,908.19,7s8.51,13.39,14.16,14.87,14,4.31,12.94,10.52S941,51,943.24,52.7s21.46,19.2,22,21.46,5.65-2.82,4.52,12.42-12.5,20.33-7.38,28.24S969,138.47,970,141.61s5.24,8.79,0,12.74-.93,4,2.56,10.73,6.31,9.6,6.31,16.94S982.94,199,982.94,199l24.68,6.21c2.26.57,11.86-3.39,20.33,18.64a144.46,144.46,0,0,0,21.46,37.41Z"/><path class="cls-70" d="M41.41,923.94s14.68-16.62,33.32-28.31,35-27.49,29.92-42.18.94-56.47.94-56.47,6.41-44.61,16-58.16,48.68-32.18,67.54-25.69,17.16-1.33,17.16-1.33,14.12-13.64,36.71,4.43,33.32,52.52,33.32,52.52,10.72,51.39,10.16,57-2.22,40.66,0,48.57,0,29.17,0,29.17,16.92,4.15,23.7,8.66S335.41,924,335.41,924Z"/><rect class="cls-70" x="11.8" y="400.76" width="419.34" height="305.58" rx="20.13"/></g></svg>