<?xml version="1.0" encoding="UTF-8" standalone="no"?>
<svg
   xmlns:dc="http://purl.org/dc/elements/1.1/"
   xmlns:cc="http://creativecommons.org/ns#"
   xmlns:rdf="http://www.w3.org/1999/02/22-rdf-syntax-ns#"
   xmlns:svg="http://www.w3.org/2000/svg"
   xmlns="http://www.w3.org/2000/svg"
   xmlns:xlink="http://www.w3.org/1999/xlink"
   xmlns:sodipodi="http://sodipodi.sourceforge.net/DTD/sodipodi-0.dtd"
   xmlns:inkscape="http://www.inkscape.org/namespaces/inkscape"
   version="1.1"
   id="svg869"
   width="4500"
   height="4500"
   viewBox="0 0 4500 4500"
   sodipodi:docname="J6 Illustration.png_inkscape.svg"
   inkscape:version="1.0.2 (e86c8708, 2021-01-15)">
  <metadata
     id="metadata875">
    <rdf:RDF>
      <cc:Work
         rdf:about="">
        <dc:format>image/svg+xml</dc:format>
        <dc:type
           rdf:resource="http://purl.org/dc/dcmitype/StillImage" />
        <dc:title></dc:title>
      </cc:Work>
    </rdf:RDF>
  </metadata>
  <defs
     id="defs873" />
  <sodipodi:namedview
     pagecolor="#ffffff"
     bordercolor="#666666"
     borderopacity="1"
     objecttolerance="10"
     gridtolerance="10"
     guidetolerance="10"
     inkscape:pageopacity="0"
     inkscape:pageshadow="2"
     inkscape:window-width="1440"
     inkscape:window-height="761"
     id="namedview871"
     showgrid="false"
     inkscape:zoom="0.14651632"
     inkscape:cx="2104.1589"
     inkscape:cy="2393.0982"
     inkscape:window-x="0"
     inkscape:window-y="25"
     inkscape:window-maximized="0"
     inkscape:current-layer="g877" />
  <g
     inkscape:groupmode="layer"
     inkscape:label="Image"
     id="g877">
    <image
       sodipodi:absref="/Users/olw-website/Desktop/PRA-github-projects/audio-project/Jan_6/J6 Illustration.png"
       xlink:href="J6%20Illustration.png"
       id="image879"
       preserveAspectRatio="none"
       height="4500"
       width="4500" />
    <path
       style="fill:#000000;stroke:#000000;stroke-width:1px;stroke-linecap:butt;stroke-linejoin:miter;stroke-opacity:0.23387097;fill-opacity:0.23"
       d="m 592.06894,680.24942 83.98141,-50.38885 46.18977,-50.38884 25.19442,-33.59257 8.39815,-104.97676 v -46.18978 l -25.19443,-83.9814 -41.9907,-71.3842 -46.18978,-33.59257 -58.78698,-16.79628 -54.58792,-20.99535 -54.58792,33.59256 -54.58791,62.98606 -58.78699,83.98141 -12.59721,75.58327 v 142.76839 l -4.19907,71.3842 146.96747,79.78234 z"
       id="path881" />
    <path
       style="fill:#ff0000;stroke:#fb0404;stroke-width:1px;stroke-linecap:butt;stroke-linejoin:miter;stroke-opacity:0.54838711;fill-opacity:0.23"
       d="M 1217.7304,1213.5314 V 974.18435 l -37.7916,-75.58327 -37.7916,-54.58791 -25.1945,-16.79629 -986.78152,4.19907 -50.388841,33.59257 -20.995352,46.18977 -4.199071,264.54141 25.194423,33.5926 12.597211,20.9953 37.79163,41.9908 25.19443,16.7962 h 990.98059 l 37.7917,-20.9953 z"
       id="path883" />
    <path
       style="fill:#ff0000;stroke:#e41010;stroke-width:1px;stroke-linecap:butt;stroke-linejoin:miter;stroke-opacity:0.53225809;fill-opacity:0.23"
       d="m 726.43919,3690.9829 46.18978,-46.1897 25.19442,-16.7963 25.19442,-67.1851 -12.59721,-83.9814 -16.79628,-20.9954 v -62.9861 l -41.99071,-37.7916 -20.99535,-8.3981 -25.19442,-67.1852 -46.18978,-29.3935 h -58.78698 l -41.99071,-16.7962 -37.79163,12.5972 -54.58792,12.5972 H 440.9024 l -29.39349,12.5972 -33.59257,50.3888 -25.19442,8.3982 -8.39814,54.5879 -25.19442,50.3888 -33.59257,46.1898 29.3935,109.1759 33.59256,33.5925 8.39814,46.1898 50.38885,104.9768 67.18512,88.1804 54.58792,46.1898 h 25.19442 l 58.78699,-33.5926 41.9907,-54.5879 46.18978,-62.986 z"
       id="path885" />
    <path
       style="fill:#ff0000;stroke:#ff0000;stroke-width:1px;stroke-linecap:butt;stroke-linejoin:miter;stroke-opacity:0.61290324;fill-opacity:0.23"
       d="m 180.56003,3942.9272 835.61507,4.199 54.5879,33.5926 25.1944,46.1898 20.9953,41.9907 v 12.5972 251.9442 l -12.5972,29.3935 -33.5925,41.9907 -37.7917,4.1991 H 180.56003 l -41.9907,-33.5926 -12.59722,-50.3888 -29.393489,-33.5926 v -46.1898 l 4.199069,-239.347 37.79164,-41.9907 z"
       id="path887" />
    <path
       style="fill:#00fffb;stroke:#000000;stroke-width:1px;stroke-linecap:butt;stroke-linejoin:miter;stroke-opacity:0.625;fill-opacity:0.23"
       d="m 3963.9225,3808.5569 33.5926,-79.7823 25.1944,-117.574 v -92.3795 l -20.9953,-113.3749 -54.588,-71.3842 -75.5832,-16.7963 -58.787,-8.3982 -88.1805,8.3982 -79.7823,37.7916 -67.1852,58.787 -46.1897,88.1805 -8.3982,54.5879 25.1945,25.1944 16.7962,37.7916 29.3935,71.3842 37.7917,67.1852 67.1851,96.5786 71.3842,33.5926 62.986,12.5972 75.5833,-37.7917 z"
       id="path889" />
    <path
       style="fill:#00fffb;stroke:#000000;stroke-width:1px;stroke-linecap:butt;stroke-linejoin:miter;stroke-opacity:0.53225809;fill-opacity:0.23"
       d="m 3367.6545,3934.529 940.5918,-4.199 75.5833,33.5925 41.9907,50.3889 8.3981,37.7916 4.1991,41.9907 4.1991,247.7452 -41.9907,33.5925 -37.7917,33.5926 -978.3834,-4.1991 -50.3888,-29.3935 -20.9954,-54.5879 -33.5926,-46.1898 4.1991,-260.3423 16.7963,-50.3889 z"
       id="path891" />
    <path
       style="fill:#00fffb;stroke:#000000;stroke-width:1px;stroke-linecap:butt;stroke-linejoin:miter;stroke-opacity:1;fill-opacity:0.23"
       d="m 3863.1448,726.43919 h 478.6941 l 75.5832,71.3842 25.1945,41.9907 8.3981,50.38885 4.1991,235.14796 -33.5926,54.5879 -75.5833,29.3935 -873.4066,-8.3981 -29.3935,-33.5926 -29.3935,-50.3889 -33.5926,-37.7916 -4.199,-281.33771 46.1897,-50.38885 58.787,-16.79628 z"
       id="path893" />
    <path
       style="fill:#00fffb;stroke:#e60909;stroke-width:1px;stroke-linecap:butt;stroke-linejoin:miter;stroke-opacity:1;fill-opacity:0.23"
       d="m 3951.3253,671.85128 100.7777,-138.56933 8.3981,-46.18978 V 440.9024 l 12.5973,-100.77769 4.199,-41.99071 -16.7963,-67.18512 -20.9953,-50.38885 -75.5833,-33.59256 h -62.986 l -113.3749,33.59256 h -46.1898 l -130.1712,130.17119 v 20.99535 l 54.5879,8.39814 16.7963,33.59256 16.7963,46.18978 8.3981,29.39349 -12.5972,16.79628 25.1944,71.3842 25.1945,20.99535 67.1851,117.57398 41.5448,19.42883 24.6783,11.21741 26.9217,-11.21741 z"
       id="path895" />
    <path
       style="fill:#00fffb;stroke:#000000;stroke-width:1px;stroke-linecap:butt;stroke-linejoin:miter;stroke-opacity:1;fill-opacity:0.23"
       d="m 1249.0076,3078.1554 -6.8252,-935.0495 61.4266,-54.6014 1815.4974,6.8252 61.4266,68.2518 -13.6503,1003.3012 -47.7763,54.6014 -1788.1967,-13.6504 -429.98618,163.8043 z"
       id="path897" />
  </g>
</svg>
